<svg xmlns="http://www.w3.org/2000/svg" viewBox="0 0 843.66 843.66"><defs><style>.cls-1{fill:#719c96;}.cls-2,.cls-3{fill:none;stroke-miterlimit:10;}.cls-2{stroke:#174450;stroke-width:118px;}.cls-3{stroke:#db6756;stroke-width:15px;}.cls-4{fill:#db6756;}.cls-5{fill:#d3d3ce;}.cls-6{fill:#174450;}.cls-7{fill:#848480;}</style></defs><g id="fond"><circle class="cls-1" cx="421.83" cy="421.83" r="289.42"/></g><g id="cercle"><circle class="cls-2" cx="421.68" cy="421.83" r="353.74"/><circle class="cls-3" cx="421.83" cy="421.83" r="288.22"/><circle class="cls-3" cx="421.83" cy="421.83" r="414.33"/><path class="cls-4" d="M6895.65,7231a11.63,11.63,0,0,1-.82,1.66c-3.1,4.16-6.22,8.29-9.33,12.43-2.35,3.12-4.67,6.26-7.07,9.33a3.44,3.44,0,0,0-.48,3.58c1.38,3.92,2.72,7.85,4.08,11.77,1.53,4.44,3.08,8.88,4.59,13.32a16.55,16.55,0,0,1,.41,2.06c-.85-.19-1.46-.27-2-.46q-11-3.57-22.08-7.19c-1.27-.42-2.48-1-3.75-1.49a2.47,2.47,0,0,0-2.47.44c-3.73,2.87-7.48,5.7-11.21,8.55-3.43,2.61-6.83,5.25-10.26,7.85-.67.5-1.42.9-2.5,1.57v-2.78c0-4.56,0-9.12.08-13.67,0-4.16.12-8.31.29-12.46a3.51,3.51,0,0,0-1.64-3.44c-1.4-.92-2.76-1.9-4.13-2.86q-8.13-5.68-16.24-11.4c-1-.72-1.94-1.58-3.23-2.64,2-.65,3.59-1.21,5.23-1.71,6.94-2.14,13.89-4.25,20.82-6.39a10.77,10.77,0,0,0,2.61-1.1,3.22,3.22,0,0,0,1.25-1.61c1.39-4.33,2.67-8.7,4-13,1.46-4.72,3-9.42,4.45-14.12.06-.22.27-.38.6-.83,1.9,2.68,3.73,5.25,5.55,7.83,3.47,4.87,7,9.72,10.38,14.62,1.22,1.76,2.55,2.82,4.93,2.52a68.65,68.65,0,0,1,7.18-.1l18.2-.38C6893.85,7230.82,6894.61,7230.91,6895.65,7231Z" transform="translate(-6777.67 -6777.67)"/></g><g id="etoiles"><path class="cls-5" d="M7250.83,7405.77a1.44,1.44,0,0,1,1.71,1.52,5.5,5.5,0,0,0,.93,3.09c1.27,2.15,2.35,4.41,3.54,6.85a1.43,1.43,0,0,1-1.5,2.05h0c-3-.48-6-.92-8.94-1.5a2.52,2.52,0,0,0-2.53.86c-2.05,2.1-4.13,4.18-6.21,6.25l-.17.17a1.44,1.44,0,0,1-2.37-.63,10.41,10.41,0,0,1-.3-1.26c-.43-2.75-.77-5.51-1.1-8.26a2.18,2.18,0,0,0-1.35-1.82l-.75-.37a1.43,1.43,0,0,1,.31-2.67c3.85-.93,7.69-1.86,11.55-2.74C7246,7406.75,7248.43,7406.27,7250.83,7405.77Z" transform="translate(-6777.67 -6777.67)"/><path class="cls-5" d="M7385.81,7305.24c1.25,2.85,2.33,5.24,3.33,7.66.82,2,1.55,4,2.3,6A2.94,2.94,0,0,0,7394,7321c4.62.84,9.19,1.94,13.78,2.95.12,0,.21.21.43.45a8.94,8.94,0,0,1-1,1.16c-2.88,2.5-5.73,5-8.71,7.42-1.61,1.29-2.58,2.61-2.28,4.85.57,4.26.92,8.55,1.35,12.82a6.65,6.65,0,0,1-.09,1,7.75,7.75,0,0,1-1.48-.5c-3.62-2.17-7.29-4.28-10.8-6.61a3.85,3.85,0,0,0-4.21-.29c-3.39,1.57-6.8,3.1-10.2,4.63-.78.35-1.58.65-2.87,1.18.17-1.27.23-2.08.41-2.87,1-4.11,2-8.21,2.94-12.32a2.63,2.63,0,0,0-.83-2.59q-3.93-4.15-7.79-8.39a31.09,31.09,0,0,1-2-2.71c1.79-.25,3.31-.54,4.85-.66,3.1-.23,6.21-.43,9.31-.53a3.36,3.36,0,0,0,3.26-1.89c2.06-3.78,4.31-7.44,6.5-11.14C7384.84,7306.5,7385.19,7306.09,7385.81,7305.24Z" transform="translate(-6777.67 -6777.67)"/><path class="cls-5" d="M7434.42,7281.49c-1.21-.95-2-1.53-2.77-2.19-1.67-1.48-3.33-3-4.93-4.54a2.46,2.46,0,0,0-2.61-.62c-2.32.57-4.66,1-7,1.52-.6.12-1.23.11-2.31.2a71.37,71.37,0,0,1,3.11-6.73c1.32-2.24,1.49-4.08-.16-6.3a61.27,61.27,0,0,1-4-7l3.37.35c2.06.22,4.16.28,6.17.7a2.51,2.51,0,0,0,2.72-.9c1.31-1.51,2.64-3,4-4.46.69-.75,1.42-1.44,2.43-2.45a31.13,31.13,0,0,1,1.18,3.47c.42,1.95.71,3.92,1,5.88a3,3,0,0,0,2.08,2.4c2.36,1,4.69,2,7,3,.4.18.78.45,1.4.82l-2.06,1.15c-2.21,1.26-4.42,2.54-6.64,3.79-1.14.64-1.28,1.73-1.36,2.88C7434.93,7275.27,7434.7,7278,7434.42,7281.49Z" transform="translate(-6777.67 -6777.67)"/><path class="cls-5" d="M7206.24,6970.72c.87-1.13,1.77-2.23,2.6-3.38s1.75-2.67,2.71-3.94c1.11-1.48,1.11-2,.34-3.68-1.3-2.89-2.48-5.84-3.83-9.07,4.35.26,7.83,2.47,12,3l9.1-7.25a19.18,19.18,0,0,1,.58,2.87c.09,2.4.18,4.8.06,7.19a3,3,0,0,0,1.81,3c2.39,1.42,4.74,2.93,7.09,4.42a15.45,15.45,0,0,1,1.25,1,12,12,0,0,1-1.4.75c-2.67,1-5.34,2.06-8.05,3a3,3,0,0,0-2.2,2.52c-.56,2.56-1.3,5.09-2,7.63-.16.59-.42,1.16-.71,2a10,10,0,0,1-1.19-1c-1.83-2.3-3.73-4.56-5.42-7a2.6,2.6,0,0,0-2.59-1.24c-3.34.19-6.69.36-10,.54C7206.31,6971.59,7206.27,6971.15,7206.24,6970.72Z" transform="translate(-6777.67 -6777.67)"/><path class="cls-5" d="M7065.6,6953.68c0,1.27.16,2.55.07,3.81-.18,2.46-.55,4.91-.67,7.37a2.6,2.6,0,0,0,.92,1.78c2,1.72,4.05,3.37,6.13,5a4.64,4.64,0,0,1,2,2.5c-2.71.61-5.22,1.34-7.78,1.72s-4.5,1.51-5.32,4.3c-.76,2.58-1.9,5.05-2.91,7.68-1.86-1.17-2.38-3-3.39-4.53a20.37,20.37,0,0,1-1.67-2.9c-1.08-2.35-2.93-3.09-5.4-3.08s-4.92-.27-7.39-.44a3,3,0,0,1-.79-.35c.36-.51.63-1,1-1.36,1.81-2.12,3.58-4.28,5.47-6.33,1-1.14.88-2.31.57-3.58,2-1.41,3.95-2.94,6.05-4.21,3.82-2.3,7.74-4.45,11.62-6.65C7064.57,6954.1,7065.1,6953.91,7065.6,6953.68Z" transform="translate(-6777.67 -6777.67)"/><path class="cls-5" d="M6977.88,7228.35c-2.91.55-5.44,1.15-8,1.48a3.11,3.11,0,0,0-2.74,1.92c-.77,1.67-1.62,3.29-2.46,4.92-.31.62-.69,1.2-1.28,2.22-1.32-2.46-2.53-4.56-3.58-6.73a3.35,3.35,0,0,0-3.16-2.33,66.23,66.23,0,0,1-7.63-1.32c.66-.77,1.07-1.3,1.53-1.77.78-.8,1.63-1.53,2.4-2.34,3.09-3.26,3.07-3.27,2.18-7.71-.3-1.54-.53-3.1-.84-5,3.61.59,5.95,3.17,9.16,4.19l9-4.93c-.25,1.81-.38,3.11-.6,4.39a24.47,24.47,0,0,1-.88,3.92c-.5,1.38,0,2.19.95,3.11C6973.93,7224.22,6975.76,7226.2,6977.88,7228.35Z" transform="translate(-6777.67 -6777.67)"/><path class="cls-5" d="M7360.35,7215.34a1.27,1.27,0,0,1-1.67-1.55c.4-1.32.76-2.49,1.14-3.66.63-1.9.91-3.55-1-5.11a23.58,23.58,0,0,1-3.12-3.35,1.28,1.28,0,0,1,.85-2.07,27.65,27.65,0,0,1,4.28-.23c2.3.11,3.51-1,4.46-2.83.58-1.16,1.24-2.27,2-3.5a1.27,1.27,0,0,1,2.25.13c.72,1.61,1.39,3.08,1.95,4.6a3.56,3.56,0,0,0,3.11,2.53c1.53.25,3,.62,4.72,1a1.27,1.27,0,0,1,.54,2.18h0c-1.28,1.07-2.53,2.2-3.9,3.13-1.69,1.14-1.72,2.71-1.5,4.44.26,2,.5,4.08.78,6.41a11.38,11.38,0,0,1-1.66-.66c-1.83-1.13-3.66-2.26-5.42-3.49a2.24,2.24,0,0,0-2.44-.18c-1.46.65-2.94,1.23-4.42,1.82Z" transform="translate(-6777.67 -6777.67)"/><path class="cls-5" d="M7044.51,7037.91c-2,2.08-3.48,3.72-5.07,5.26a2.92,2.92,0,0,0-.86,3.23c.42,1.45.69,3,1,4.44.13.67.15,1.37.25,2.29-3.18-.36-5.4-2.43-8.23-3.26l-7.7,4.55c.11-2,.17-3.41.27-4.81a11.37,11.37,0,0,1,.28-1.65c.46-2.15-.43-3.62-2.15-4.88-1.46-1.06-2.72-2.4-4.49-4,2.5-.5,4.46-1.05,6.46-1.25a3.86,3.86,0,0,0,3.72-3.05,61.34,61.34,0,0,1,2.42-5.7,8,8,0,0,1,2.33,2.78c.42.86,1,1.68,1.28,2.57.78,2.14,2.42,2.75,4.5,2.85C7040.31,7037.37,7042.1,7037.65,7044.51,7037.91Z" transform="translate(-6777.67 -6777.67)"/><path class="cls-5" d="M7106,6981c-.3,1.67-.44,2.91-.77,4.1a2.76,2.76,0,0,0,1,3.19c.9.73,1.75,1.53,3,2.59a40.09,40.09,0,0,1-4.34.72,2.38,2.38,0,0,0-2.18,1.51c-.55,1-1.26,2-1.94,3-1.28-.43-1.49-1.57-1.8-2.45a3.61,3.61,0,0,0-3.44-2.46c-.85-.1-1.7-.28-3-.5a24.32,24.32,0,0,1,2-2.08,3.87,3.87,0,0,0,1.53-4c-.18-1.07-.24-2.16-.41-3.78a22.53,22.53,0,0,1,2.52,1.39c1.94,1.52,3.79,1.25,5.69-.05C7104.34,6981.78,7105,6981.5,7106,6981Z" transform="translate(-6777.67 -6777.67)"/></g><g id="lettres"><path class="cls-5" d="M6850.64,7124.91c9.13,2.83,18.27,5.64,27.39,8.5,4.4,1.38,8.77,2.87,13.15,4.32.66.22,1.31.5,2.06.8-.71,4.12-1.4,8.1-2.15,12.42l-47.23-1.61,0,.44,45.73,8.4c-1,5.88-2,11.59-3.05,17.63-8.67-1.32-17.1-3.33-25.64-4.74s-17.13-3-25.69-4.6-17-3.18-25.52-4.77c1.55-8.72,3.05-17.17,4.6-25.93l34,1.21c-10.51-4.2-21.36-7.21-32.17-10.86,1.58-8.75,2.72-17.42,4.94-26.05,3.73.64,7.34,1.24,10.93,1.89q17.89,3.24,35.78,6.53,13.78,2.51,27.57,5c2.3.41,2.39.47,2,2.73-.91,5-1.83,10-2.8,15.34l-41.35-7.29c-.3-.83-.94-.79-1.62-.63l-.91-.13-4.76-1.08-.18.57Z" transform="translate(-6777.67 -6777.67)"/><path class="cls-5" d="M6996.25,6963.71l-21.56-24.64-4.39,3.85c7.17,8.24,14.21,16.34,21.47,24.67l-15.19,13.31a18.65,18.65,0,0,1-1.82-1.59c-4.5-5.18-9-10.38-13.47-15.56-2.4-2.76-4.85-5.48-7.25-8.25-4-4.64-8-9.32-12-13.94-5-5.71-10-11.37-15-17.06-.62-.71-1.17-1.5-1.9-2.43l15.27-13.38,18.33,21,4.44-3.81-18.27-21,15.32-13.55,51.39,58.94Z" transform="translate(-6777.67 -6777.67)"/><path class="cls-5" d="M7589,7218.39c-.05.91-.06,1.69-.15,2.47-.47,4.21-1,8.41-1.44,12.62-.22,1.92-.2,2-2,2.34-4.53,1-9.07,1.84-13.6,2.81-6.15,1.31-12.29,2.69-18.45,4.4l32.75,3.68c-.54,5.49-1.07,10.87-1.59,16.21-2.06.53-73.08-6.32-77.69-7.49,0-5.84,1.39-11.6,1.7-17.61l33.71-6.53,0-.49-32.43-3.48c.16-5.65,1-11.13,1.48-17Z" transform="translate(-6777.67 -6777.67)"/><path class="cls-5" d="M6851.75,7022.08l10.18-17.23c1.9,1,3.65,1.95,5.35,2.94q12.17,7.14,24.3,14.34c6.51,3.87,13,7.82,19.48,11.69,1.91,1.13,3.92,2.14,5.94,3.08a3.49,3.49,0,0,0,2.28.26c2.07-.64,2.43-2.88.68-4.29a38,38,0,0,0-4.14-2.85c-2.94-1.78-5.93-3.46-8.88-5.21-4.46-2.64-8.89-5.32-13.36-8-6.72-4-13.47-7.9-20.19-11.88-2.8-1.66-5.54-3.41-8.45-5.2l10.26-17.41a4.55,4.55,0,0,1,.93.26c5.36,3.16,10.7,6.35,16.05,9.51,6.11,3.61,12.24,7.18,18.33,10.8,5.21,3.09,10.44,6.17,15.58,9.38,4.11,2.56,7.69,5.71,9.42,10.45a18.93,18.93,0,0,1,.09,12.71,47,47,0,0,1-2.85,6.32,27.7,27.7,0,0,1-11.66,12c-5.4,2.91-11.06,2.67-16.49-.38q-7-3.93-13.94-7.91c-2.35-1.35-4.65-2.77-7-4.14-6.59-3.88-13.21-7.73-19.79-11.64-3.76-2.23-7.47-4.55-11.21-6.84A12.17,12.17,0,0,1,6851.75,7022.08Z" transform="translate(-6777.67 -6777.67)"/><path class="cls-5" d="M7279.26,6818.57c3.34.85,6.37,1.54,9.35,2.4,6,1.72,11.93,3.47,17.85,5.34a28.7,28.7,0,0,1,6.11,2.68,12.71,12.71,0,0,1,6.34,10.42c.49,7.13-1.46,13.78-4.56,20.09a8.09,8.09,0,0,1-7.33,4.59c-.79,0-1.58,0-3,0,1,.8,1.43,1.29,2,1.65a9.49,9.49,0,0,1,4.35,8.34,23.24,23.24,0,0,1-.81,5.9c-1.74,6.89-3.61,13.74-5.42,20.61-.43,1.61-.84,3.22-1.32,5.09-6.32-1-12.16-3.24-18.41-4.88.64-2.45,1.22-4.75,1.83-7q2.19-8.2,4.39-16.42c.51-1.91,1.07-3.82,1.6-5.73a1.55,1.55,0,0,0,.07-.23c.67-3.73-.2-4.92-4.41-5.75-.68,2.13-1.45,4.28-2,6.48-1.06,3.93-2,7.9-3,11.83-1.3,4.84-2.69,9.66-4.05,14.49a5.81,5.81,0,0,1-.4.79l-19.58-5.23C7265.61,6868.83,7272.39,6843.86,7279.26,6818.57Zm11.81,34.82c4.32,1.46,5.65.87,7-3.2a70.33,70.33,0,0,0,1.9-7.15c.74-3.51-.54-5.21-4.5-6C7294,6842.41,7292.56,6847.83,7291.07,6853.39Z" transform="translate(-6777.67 -6777.67)"/><path class="cls-5" d="M7499.5,7373.63l-30.11-17.58c3.35-5.92,6.77-11.69,10.29-17.7l67.38,39.32c-.62,1.22-1.09,2.3-1.68,3.3-3.89,6.59-7.6,13.3-11.82,19.67-1.84,2.79-3.52,5.9-6.6,7.78a14.43,14.43,0,0,1-12.8,1.63,48.42,48.42,0,0,1-12.87-6.71c-.84-.6-1.61-1.31-2.4-2-3.08-2.56-3.71-5.8-2.59-9.51.16-.53.27-1.07.4-1.61,0-.07-.05-.15-.13-.38l-1.47,1.16c-3.65,2.81-7.6,3.65-11.89,1.67-2.16-1-4.26-2.16-6.33-3.35-6.63-3.82-13.23-7.68-20.12-11.67l9.52-16.39c2.24,1.22,4.33,2.31,6.37,3.5,5,2.88,9.89,5.82,14.85,8.71a50.42,50.42,0,0,0,5.63,3.07C7496.62,7378.05,7497.83,7377.45,7499.5,7373.63Zm25.72,14.9c-5.24-2.57-9.64-6.13-14.85-8.22-2.29,3.67-2,5.29,1.4,7.43,1.34.85,2.72,1.64,4.11,2.4a28.17,28.17,0,0,0,3.61,1.79,3.69,3.69,0,0,0,4.58-1.48C7524.44,7389.94,7524.72,7389.37,7525.22,7388.53Z" transform="translate(-6777.67 -6777.67)"/><path class="cls-5" d="M7044,7517.61c-.81-1.07-1.59-2.15-2.42-3.21-2.94-3.76-2.94-7.68-.81-11.82.77-1.48,1.25-3.1,1.92-4.64q3.75-8.69,7.56-17.34c.54-1.22,1.24-2.37,2-3.81l16.82,7.38a9.6,9.6,0,0,1-.4,1.84c-2.76,6.18-5.6,12.33-8.31,18.54a83.4,83.4,0,0,0-3.32,8.71c-.94,3.06.35,4.74,3.82,5.28l14-31.57c6.46,2.29,12.29,5.57,18.84,7.95L7062,7566.44a10.26,10.26,0,0,1-1.59-.4c-6.9-3.1-13.84-6.13-20.66-9.39-3.15-1.51-6.07-3.48-9.08-5.26a4.25,4.25,0,0,1-1-1c-3.16-3.85-4.54-8.11-3.41-13.14a52.94,52.94,0,0,1,4.24-11.93,31.64,31.64,0,0,1,3.6-5.34,7.19,7.19,0,0,1,6.18-2.55l3.8.13.08.32.18-.1Zm11.73,12.47c-1.44-.39-2.48-.76-3.56-.94a2.37,2.37,0,0,0-2.7,1.13c-1.66,3.44-3.26,6.91-4.73,10.43a2.67,2.67,0,0,0,.9,3.25c.92.69,1.91,1.29,3,2.05Z" transform="translate(-6777.67 -6777.67)"/><path class="cls-5" d="M6854,7043.65c2.53-.21,5.22.61,7.86,1.52q7.91,2.76,15.74,5.75,8.82,3.36,17.57,6.91a71.9,71.9,0,0,1,6.72,3.13,19.37,19.37,0,0,1,10,19.21,34,34,0,0,1-5.35,14.7,19.82,19.82,0,0,1-11.09,8.63,16.81,16.81,0,0,1-11.39-.1c-8.24-3-16.58-5.8-24.76-9-6.3-2.45-12.53-5.17-18.58-8.2-5.09-2.55-7.9-7.13-8.72-12.73a28.66,28.66,0,0,1,3.74-18.43,25.41,25.41,0,0,1,5.74-7.27A18,18,0,0,1,6854,7043.65Zm43.39,39.19c0-1.25-.37-1.94-2-2.64-6.53-2.76-13.07-5.51-19.65-8.14-7.62-3.05-15.29-6-23-8.93a18.81,18.81,0,0,0-3.46-.93c-1.59-.27-2.3.17-2.87,1.5-.65,1.55-.44,2.63,1,3.53a23,23,0,0,0,3.8,2q6.41,2.66,12.86,5.15c6.11,2.36,12.25,4.62,18.37,7,2.15.83,4.23,1.86,6.39,2.64a34.28,34.28,0,0,0,5.51,1.58C6896.16,7085.91,6897.31,7084.75,6897.35,7082.84Z" transform="translate(-6777.67 -6777.67)"/><path class="cls-5" d="M7218.11,6810.14c-3,26.26-5.89,52.19-8.86,78.46-10.25.32-20.42.25-30.79.68-.51-3-1-5.81-1.48-8.62-1.82-10.95-3.62-21.91-5.47-32.85-1.69-9.91-3.43-19.81-5.16-29.71-.38-2.18-.82-4.35-1.3-6.91l21.58-.38c1.32,8.31,2.14,16.7,3.19,25.06s2,16.77,3.16,25.15c1.17-16.71,2-33.44,3.64-50.37Z" transform="translate(-6777.67 -6777.67)"/><path class="cls-5" d="M7009.92,7490.22c-.45.73-.85,1.5-1.37,2.18-2.93,3.79-5.89,7.54-8.82,11.33-2.55,3.27-5,6.59-7.61,9.85-2.71,3.44-5.48,6.83-8.24,10.24-.34.43-.74.81-1.33,1.44l-17.93-11.58,51.12-60,25.89,16.74a14.6,14.6,0,0,1-.5,1.61q-4.38,9.69-8.79,19.37c-2.59,5.66-5.25,11.28-7.82,16.94-2.7,6-5.3,12-8,17.91-2.3,5.08-4.68,10.12-7,15.17a7,7,0,0,1-.68.9L6991,7530.8c1.86-3.75,3.62-7.33,5.42-10.88q6.66-13.12,13.36-26.23c.6-1.19,1.32-2.31,2-3.47a24.4,24.4,0,0,0,2.78-4.95l-.48-.3Z" transform="translate(-6777.67 -6777.67)"/><path class="cls-5" d="M6921.73,7425.52l13.81,14.84c-2.88,2.69-5.57,5.15-8.19,7.67-2,1.94-4.05,3.87-5.89,6-1.42,1.62-1.12,3.19.52,4.59,1.35,1.15,2.52,1.21,4.32-.18,2.08-1.61,4-3.37,6-5.16,3.82-3.5,7.58-7.07,11.37-10.6,5.71-5.32,11.44-10.62,17.12-16a7,7,0,0,0,1.48-2.15,2.78,2.78,0,0,0-.84-3.63,2.6,2.6,0,0,0-3.49-.42,53.69,53.69,0,0,0-5.47,4.25c-2.39,2.1-4.64,4.35-7,6.53a4,4,0,0,1-.85.43L6931.06,7417a26.35,26.35,0,0,1,2.69-2.95c3.77-3.06,7.44-6.29,11.48-9s8.44-2.46,13-1.5a22.26,22.26,0,0,1,8.52,4.17,31.72,31.72,0,0,1,11,13.63c2.67,6.52,2.25,12.69-2.29,18.48a99.1,99.1,0,0,1-9.81,10.46c-6.07,5.76-12.24,11.44-18.44,17.06-3.31,3-6.6,6-10.81,7.8a16.37,16.37,0,0,1-13.19.08,30.36,30.36,0,0,1-18.3-19.1c-2.47-7.11-.46-13.39,4.55-18.76,2.66-2.86,5.46-5.59,8.25-8.32C6918.84,7427.9,6920.16,7426.87,6921.73,7425.52Z" transform="translate(-6777.67 -6777.67)"/><path class="cls-5" d="M6861.77,7345.44l8.26,16.67c-2.4,1.31-4.55,2.48-6.69,3.68a16.94,16.94,0,0,0-1.6,1.05,2.62,2.62,0,0,0-1,3.16,2.88,2.88,0,0,0,2.89,2.1,7.7,7.7,0,0,0,3-.69,37.13,37.13,0,0,0,4.69-2.82,5.84,5.84,0,0,0,2.27-4.35c.38-3.09.55-6.21,1-9.28.64-4.1,1.43-8.17,2.27-12.23.92-4.43,3.85-7.51,7.38-9.95a59.13,59.13,0,0,1,12-6.39c7.21-2.83,13.34-1.62,18.74,4,5.83,6.05,9.21,13.11,9.53,21.57.23,6.28-2.24,11.22-7.53,14.54-3.77,2.37-7.74,4.42-11.95,6.79l-8.49-16.87c2.62-2.2,5.72-3.09,8.48-4.61a32.27,32.27,0,0,0,3.78-2.47c1.19-.9,1.2-2.17.66-3.47s-1.47-2.36-3-2.27a8.08,8.08,0,0,0-3,.69c-1.85.91-3.62,2-5.39,3.06a7.75,7.75,0,0,0-3.81,5.8c-.61,4.51-1.25,9-1.88,13.53-.2,1.42-.37,2.85-.61,4.27a19.48,19.48,0,0,1-8,12.84,44.65,44.65,0,0,1-14.25,6.58c-4.07,1.2-7.73-.11-11.17-2.2a21.16,21.16,0,0,1-6-5.78,34.9,34.9,0,0,1-6.78-16.39c-.47-3.69-.39-7.36,1.54-10.73a5.75,5.75,0,0,1,.89-1.4A40.26,40.26,0,0,1,6861.77,7345.44Z" transform="translate(-6777.67 -6777.67)"/><path class="cls-5" d="M7175.61,7540l-18.66-2.53c.23-2,.47-3.9.66-5.78.27-2.54.64-5.08.71-7.62.06-2.15-.93-3-3-3.26a3,3,0,0,0-3.06,1.47c-1.81,2.91-2,6.17-1.92,9.47,0,2.51,1.34,4.37,3.08,6,3.86,3.58,7.7,7.18,11.63,10.68a22.09,22.09,0,0,1,6.12,7.85,22.92,22.92,0,0,1,1.49,6.72,33.2,33.2,0,0,1-1.4,12.57c-1.08,3.55-2.41,7.06-5.64,9.48a17.26,17.26,0,0,1-7.42,3.15,35,35,0,0,1-20.41-2.38,28.28,28.28,0,0,1-7.3-4.91c-2.52-2.25-3.16-5.55-3.1-8.8.08-3.81.5-7.6.79-11.67,6.53.45,12.61,1.59,19,2.23-.21,1.79-.4,3.35-.57,4.91a32.62,32.62,0,0,0-.38,4.05,4.4,4.4,0,0,0,.72,2.45c1.42,1.88,3.88,1.34,5.17-1.06,1-1.9,1-4,1.11-6.07a7,7,0,0,0-2.7-6.07c-3.42-2.72-6.75-5.59-10-8.55-2.63-2.42-5.3-4.85-7.12-8a23.22,23.22,0,0,1-2.7-14.57c.35-3.16,1.12-6.28,1.64-9.43,1.23-7.42,6.15-11.1,13-12.54a33.13,33.13,0,0,1,18.18,1.33c3.91,1.41,7.57,3.36,10.16,6.86a14.7,14.7,0,0,1,3.05,7.42C7177.35,7528.9,7176.52,7534.3,7175.61,7540Z" transform="translate(-6777.67 -6777.67)"/><path class="cls-5" d="M7089.16,6850.48c-2.89,1.16-5.67,2.32-8.48,3.39s-5.7,2.09-8.85,3.24c-.63-1.33-1.31-2.64-1.9-4-.68-1.53-1.21-3.13-2-4.62s-1.44-1.83-2.83-1.62a3,3,0,0,0-2.54,2.52,2,2,0,0,0,0,.24c-.64,4.32,2.88,9.83,7.12,10.9,2.63.67,5.37.91,8,1.61,4.31,1.15,8.56,2.48,12.82,3.81a14.38,14.38,0,0,1,7.67,6.21,49.5,49.5,0,0,1,7,16.67c1.35,6.07-.41,11-4.92,15.08a31.66,31.66,0,0,1-24.89,8.35c-5.8-.48-10-3.5-12.59-8.72a61,61,0,0,1-5.24-12.83l17.41-6.56c.62,1.34,1.24,2.51,1.71,3.74.78,2,1.42,4.07,2.18,6.09a14.76,14.76,0,0,0,1.14,2.37c1,1.74,2.3,2.42,3.67,2a3.76,3.76,0,0,0,2.92-4.13,19.78,19.78,0,0,0-4.51-9.89,9.2,9.2,0,0,0-4.1-2.27c-3.91-1.11-7.92-1.9-11.86-2.91-2.62-.67-5.22-1.46-7.81-2.25a16.15,16.15,0,0,1-9.37-8.09,38.8,38.8,0,0,1-5.15-15.09,13.78,13.78,0,0,1,2.47-9.72,23.94,23.94,0,0,1,10.39-8.14,38.26,38.26,0,0,1,15-3.62,16.9,16.9,0,0,1,9.47,2.9,9.12,9.12,0,0,1,2.4,2.62A44.34,44.34,0,0,1,7089.16,6850.48Z" transform="translate(-6777.67 -6777.67)"/><path class="cls-5" d="M7468.77,7449.6l11.88-14.48,5.13,3.93a21.69,21.69,0,0,0,1.9,1.45c2.39,1.47,3.81,1,4.93-1.52a2,2,0,0,0,0-1.55,12.33,12.33,0,0,0-7.9-6.49,7.3,7.3,0,0,0-3.76.2c-4.19,1.27-8.29,2.84-12.5,4-5.23,1.5-10.56,2.9-16,1.1a28.36,28.36,0,0,1-5.93-3,42.53,42.53,0,0,1-11.56-9.93,17.23,17.23,0,0,1-3-5.63,12.73,12.73,0,0,1-.08-5.92,32.78,32.78,0,0,1,2.68-7.65,31.19,31.19,0,0,1,14.35-14.59,15.8,15.8,0,0,1,16.37,1c3.8,2.41,7.17,5.27,10.92,8.19-3.72,5.13-7.89,9.7-11.78,14.71-1.21-.86-2.33-1.6-3.38-2.42-2.45-1.93-4.84-3.91-7.28-5.83a2.64,2.64,0,0,0-3.32-.32,4,4,0,0,0-1.72,4.14,7.86,7.86,0,0,0,3.19,4.08,19.26,19.26,0,0,1,2.15,1.51c2.35,2.13,5,3.13,8.13,2.23,3.89-1.12,7.78-2.28,11.68-3.38,2.3-.66,4.61-1.3,6.94-1.84a18.13,18.13,0,0,1,16.19,3.66,96.47,96.47,0,0,1,7.5,6.3c6,5.95,6.13,12.53,2.76,19.56a36.41,36.41,0,0,1-10.8,13.21,27.17,27.17,0,0,1-5.49,3.31c-5.43,2.47-10.3,1.14-14.88-2.09-1.95-1.37-3.81-2.88-5.68-4.36C7469.86,7450.74,7469.4,7450.21,7468.77,7449.6Z" transform="translate(-6777.67 -6777.67)"/><path class="cls-5" d="M6930.7,6950.61l-11.93,14.49c-1.85-1.49-3.48-2.84-5.14-4.15a20.13,20.13,0,0,0-2.56-1.77,2.51,2.51,0,0,0-2.93.1,3,3,0,0,0-1.28,3.14c.32,1.71,1.54,2.76,2.72,3.83.41.37,1,.55,1.39.93,3.14,3.09,6.7,2.51,10.26,1.11a83.79,83.79,0,0,1,19.42-5.06,15.34,15.34,0,0,1,7,1.18c4.33,1.48,7.87,4.24,11.23,7.18a78.38,78.38,0,0,1,6.39,6.74c2,2.23,2.43,5,2.27,7.86-.35,6.32-3.11,11.61-7.17,16.35a35.78,35.78,0,0,1-6.25,5.86c-4.12,3-8.63,4.65-13.68,3.75a18.69,18.69,0,0,1-6.83-2.68c-3.52-2.31-6.73-5.08-10.07-7.68-.17-.13-.25-.38-.48-.73l11.87-14.35a9.4,9.4,0,0,1,1.14.71c2.55,2.16,5.08,4.35,7.64,6.5a8.66,8.66,0,0,0,1.6,1.05c2.33,1.25,3.61.9,5-1.32a2.61,2.61,0,0,0,0-3.08c-2.26-3.68-5.85-5.59-9.51-7.38a4.07,4.07,0,0,0-2.56,0c-6.71,1.79-13.38,3.67-20.08,5.47a15.53,15.53,0,0,1-9.86-.66c-6.39-2.46-11.32-6.78-15.42-12.1a12.88,12.88,0,0,1-2.69-10.81,26.66,26.66,0,0,1,3.81-9.5,36.34,36.34,0,0,1,8.64-9.52c2.78-2,5.59-3.94,9.08-4.64a12.21,12.21,0,0,1,9.55,1.89A57.57,57.57,0,0,1,6930.7,6950.61Z" transform="translate(-6777.67 -6777.67)"/><path class="cls-5" d="M6887.06,7435.47l-19.27-28,13-9c2.59,3.73,5.06,7.31,7.72,11.16l11.95-8.24-7-10.49,12.3-8.49,7.27,10.4,13.92-9.59-8.37-12.27,13-9,20.05,29.18Z" transform="translate(-6777.67 -6777.67)"/><path class="cls-5" d="M7516.77,7334.07l-15.68-6.32c-1.93,4.65-3.76,9.11-5.68,13.74l-14.59-5.88c4.44-10.93,8.82-21.74,13.31-32.79l72.38,29.4c-4,10.56-8.54,20.72-12.58,31.4-5-1.62-9.67-3.79-14.75-5.84,1.7-4.14,3.31-8.1,5-12.15a7.33,7.33,0,0,0-1.52-1.15c-3.86-1.52-7.74-3-11.89-4.58l-4.88,11.58-13.75-5.58C7513.66,7342,7515.19,7338.08,7516.77,7334.07Z" transform="translate(-6777.67 -6777.67)"/><path class="cls-5" d="M7409.27,7510.4l-8.32-11.87-10.47,7.05-8.4-12.2,10.05-7.16c-2.67-4.94-6.34-9.06-9.09-13.81-2.71.66-4.27,2.74-6.34,4s-4,2.65-6.23,4.17l-8.9-12.78c9.38-6.9,19.13-13.29,28.89-20.28l44.63,64.2-27.93,19.42-9-12.93Z" transform="translate(-6777.67 -6777.67)"/><path class="cls-5" d="M7092.41,7511.35c1.43-5.17,2.77-10,4.16-15,1.82.43,3.35.76,4.87,1.17q13.5,3.7,27,7.46c2.11.59,2.13.66,1.54,2.83-2.69,9.86-5.35,19.72-8.08,29.56q-5,17.86-10,35.69c-.73,2.59-1.64,5.13-2.54,7.88l-32.39-9.12c.41-1.61.77-3.05,1.16-4.49.75-2.86,1.48-5.72,2.28-8.56.56-2,.69-2.05,2.66-1.53,3,.8,6,1.61,9,2.4.61.15,1.23.22,2.06.36,1.3-4.49,2.59-8.9,3.89-13.4-3.78-2-7.85-2.51-12-3.89,1.26-4.76,2.49-9.41,3.81-14.42l12.33,3.44c1.51-5.48,3-10.82,4.52-16.43Z" transform="translate(-6777.67 -6777.67)"/><path class="cls-5" d="M7257.05,6860.74l-12.64-1.38c-.66,5.66-1.3,11.09-2,16.76l14.64,1.82c-.66,5.28-1.3,10.37-2,15.63l-35-4.23c3.17-25.95,6.31-51.74,9.46-77.61l33.39,4.12c.33,2.55-.61,10.09-1.93,15.46l-13-1.43c-.62,4.82-1.24,9.59-1.87,14.52l12.54,1.57C7258.16,6851,7257.61,6855.81,7257.05,6860.74Z" transform="translate(-6777.67 -6777.67)"/><path class="cls-5" d="M7004.83,6893.87c-1.18-3.13-2.33-6.27-3.53-9.39-1.43-3.72-2.91-7.42-4.35-11.13-.6-1.55-1.16-3.12-1.83-4.91l15.93-10.07c.46,1.48.86,2.67,1.19,3.87,2.78,10.16,5.53,20.33,8.32,30.48,1.38,5,2.83,10,4.25,14.93a6.31,6.31,0,0,0,.63,1.54c3.65,5.71,7.34,11.4,11,17.1.9,1.42,1.72,2.88,2.59,4.31,1.15,1.88,1.13,2.07-.67,3.2-2.84,1.79-5.69,3.54-8.55,5.3-1.76,1.08-3.53,2.14-5.35,3.23a3.93,3.93,0,0,1-.8-.69c-1.93-3-3.83-6.06-5.76-9.08-2.83-4.43-5.65-8.86-8.54-13.25a13.22,13.22,0,0,0-2.24-2.49c-8.74-7.79-17.52-15.53-26.28-23.31-3.15-2.81-6.25-5.67-9.37-8.52a8.36,8.36,0,0,1-.72-.93c5-3.73,10.33-6.63,15.42-10a12.51,12.51,0,0,1,1.13.95q6.16,6.84,12.3,13.68c1.64,1.82,3.31,3.62,5,5.44l.42.3Z" transform="translate(-6777.67 -6777.67)"/><path class="cls-5" d="M7445.08,7504.16l-10.66-11.59,8.84-8.2-42-46.09c5-4.58,10-9.11,15.11-13.8l42,46.06,8.94-8,10.57,11.67Z" transform="translate(-6777.67 -6777.67)"/><path class="cls-5" d="M7566.72,7273.38l15.22,4.12-11.12,43-15.26-4c1-3.8,1.93-7.49,2.95-11.43-1.45-.5-2.82-1.09-4.25-1.46-10.91-2.78-21.83-5.5-32.73-8.27-6.95-1.77-13.89-3.6-20.83-5.41-.74-.2-1.47-.48-2.42-.79,1.77-6.64,2.89-13.23,5.26-19.69l60.21,15.58Z" transform="translate(-6777.67 -6777.67)"/><path class="cls-5" d="M7395,7538.32l-18.12,9.71L7347.64,7493c-3.9,1.42-7.05,4.12-11,5.54l-7.34-13.83,29-15.33c.59,1.14,1.05,2.05,1.53,2.95q5.43,10.26,10.85,20.51,5.25,9.95,10.51,19.89c3.38,6.41,6.75,12.83,10.16,19.23C7392.42,7534,7393.64,7536,7395,7538.32Z" transform="translate(-6777.67 -6777.67)"/><path class="cls-5" d="M7158.54,6875.84l11.85-1.55c1.64,4.94,1.68,10.07,2.65,15.33l-32.52,4.8L7129.46,6817l20.2-2.75C7152.63,6834.81,7155.56,6855.17,7158.54,6875.84Z" transform="translate(-6777.67 -6777.67)"/><path class="cls-5" d="M6956.55,7506.79,6941,7493.73c.93-1.17,1.63-2.11,2.39-3,2.51-3,5-5.95,7.55-8.93q2.53-3,5.06-6.06,5.72-6.9,11.42-13.82l11.89-14.36q5.32-6.44,10.65-12.9c.76-.92,1.25-.94,2.21-.13,3.58,3,7.18,6,10.76,9.09,1.2,1,2.35,2.12,3.63,3.27Z" transform="translate(-6777.67 -6777.67)"/><path class="cls-5" d="M7095.75,6824.63l19.48-5c.72,2.56,1.45,4.91,2,7.29,1.2,5,2.29,10,3.5,14.92q5,20.68,10.15,41.35c.93,3.78,1.95,7.55,2.92,11.32.07.3.08.62.14,1.14l-19.68,4.91c-.49-2.08-.91-3.92-1.37-5.76-2.57-10.28-5.18-20.56-7.73-30.86-1.22-5-2.31-10-3.54-14.9-1.93-7.82-3.93-15.62-5.9-23.42A6.1,6.1,0,0,1,7095.75,6824.63Z" transform="translate(-6777.67 -6777.67)"/><path class="cls-5" d="M7510.76,7204.53c-.16-6.74-.32-13.26-.48-19.88a6.57,6.57,0,0,1,1.26-.33q15.79-.48,31.58-.91t31.86-.74c4.38-.09,8.77,0,13.47,0,.16,6.56.33,13.14.5,20-.94.08-1.78.2-2.63.22l-25.4.5c-8.38.16-16.77.27-25.15.49-7.66.2-15.31.52-23,.78C7512.26,7204.63,7511.71,7204.57,7510.76,7204.53Z" transform="translate(-6777.67 -6777.67)"/><path class="cls-5" d="M7312.52,7507c-2.56,1-5,1.95-7.45,2.91-.82.32-1.6.74-2.43,1-1.27.44-1.61.28-2.12-1.06-1.29-3.35-2.55-6.72-3.82-10.08a2.3,2.3,0,0,0-1-1.36c2.64,25.73,5.29,51.47,8,77.46-9.78,2-19.11,4.63-28.64,6.59-.37-.75-.64-1.23-.84-1.74q-3.43-8.67-6.85-17.36c-1.85-4.67-3.73-9.34-5.59-14-3.34-8.36-6.65-16.74-10-25.09-1.9-4.72-3.91-9.4-5.87-14.11a6,6,0,0,1-.14-1c1.35-.35,2.71-.73,4.08-1,3.89-.88,7.79-1.71,11.68-2.61,1.37-.32,2.71-.8,4.4-1.3l4.23,13.49,7-1.58c-.74-4.67-1.45-9.21-2.19-13.89,1.12-.28,2-.52,2.94-.74,5.19-1.25,10.41-2.41,15.58-3.78a49.14,49.14,0,0,0,5.66-2.32c3.4-1.37,6.79-2.75,10.19-4.08,5.06-2,10.12-3.92,15.18-5.88.37-.14.75-.25,1.41-.47a16.74,16.74,0,0,1,1.05,2c1.05,2.76,2,5.56,3.08,8.31,2.2,5.56,4.47,11.09,6.69,16.63.65,1.63,1.21,3.3,1.84,4.94l7.26,18.73c1.57,4,3.12,8,4.72,12,1.27,3.17,2.61,6.32,4,9.72-6.28,2.88-12.58,5-19,7.51-.38-.87-.77-1.64-1.07-2.43q-3.73-9.58-7.43-19.18c-1.7-4.38-3.38-8.78-5.1-13.16q-4.38-11.13-8.8-22.23A8.9,8.9,0,0,0,7312.52,7507Zm-28.7,52.94c-.88-10.12-1.26-20.28-3.57-30.26l-6.25,1.69C7277.34,7541,7280.58,7550.45,7283.82,7559.89Z" transform="translate(-6777.67 -6777.67)"/><path class="cls-5" d="M7213,7552.5c-.93-.27-1.52-.49-2.13-.63a10.71,10.71,0,0,1-8.41-9.59c-.23-2.63-.52-5.25-.75-7.87q-.86-9.54-1.67-19.08c-.07-.78,0-1.58,0-2.66l18.65-1.35c.19,1.89.38,3.46.5,5,.54,7.17,1,14.34,1.61,21.51a31.4,31.4,0,0,0,1,5.14c.62,2.37,1.43,2.93,3.93,3,.47,0,.94,0,1.76-.08-.49-11.68-2.14-23.21-2.62-35l20.14-1.79c2.4,26,4.1,51.94,6.07,78-1.85.16-3.42.33-5,.44-8.92.61-17.83,1.55-26.79,1.24a14.25,14.25,0,0,1-8.29-2.72,14.42,14.42,0,0,1-4.31-5.64,25.8,25.8,0,0,1-2.26-9.26c-.22-3.26-.09-6.55-.13-9.82-.05-4.13,3.2-7.24,6.56-8.15C7211.46,7553.05,7212,7552.82,7213,7552.5Zm15.5,5.6c-1.05.15-1.75.22-2.43.37-2.14.45-3,1.19-3,3.39a73.94,73.94,0,0,0,.64,10c.44,3.07,2.74,4.15,6,3.11C7229.32,7569.47,7228.9,7563.94,7228.47,7558.1Z" transform="translate(-6777.67 -6777.67)"/></g><g id="mercury"><path class="cls-6" d="M7522.33,7107.7c-5.16-1.72-10.38-3.29-15.85-3.58a71,71,0,0,0-7.14.19c-4.71.23-8.62,2.46-12.44,5a51.71,51.71,0,0,1-4.65,2.47c-4.32,2.25-8.7,4.37-12.94,6.75-4.93,2.76-10.37,4.72-14.71,8.42-3.18,2.72-7,4-10.58,5.88-4.17,2.18-8.19,4.62-12.31,6.87-2.52,1.38-5.15,2.56-7.65,4-3.06,1.7-6,3.54-9.07,5.31-2.12,1.24-4.2,2.6-6.41,3.67a78,78,0,0,0-9.81,6.21c-.79.54-1.53,1.15-2.33,1.67-4,2.59-8.14,5.06-12.08,7.77-5.71,3.92-11.38,7.91-16.91,12.08-3.94,3-7.52,6.41-11.43,9.42-3.72,2.87-7.67,5.45-11.52,8.16l-8.61,6c-1.51,1.06-3,2.12-4.5,3.16-2.94,2.05-6,4-8.82,6.16a14.16,14.16,0,0,0-4.95,6c-2.66,6.83-5.25,13.69-7.92,20.53-2.28,5.86-4.66,11.69-7,17.54-.68,1.71-1.16,3.5-1.91,5.17a11.48,11.48,0,0,1-2.06,3.13c-2.58,2.71-5.91,4.32-9.21,5.9-5.25,2.52-10.56,4.91-15.84,7.36-6.94,3.21-13.88,6.44-20.83,9.63q-8.58,3.93-17.2,7.79c-4.81,2.14-9.67,4.15-14.45,6.33-1.65.75-3.11,1.92-4.75,2.69-2.45,1.15-5,2.07-7.5,3.17-4.8,2.14-9.57,4.35-14.36,6.5-1.31.59-2.67,1-4,1.63q-8.55,3.74-17.08,7.52c-3.72,1.64-7.45,3.27-11.15,5-2.54,1.15-5,2.42-7.55,3.58a11,11,0,0,1-2.47.73,3.38,3.38,0,0,0-2.71,4.64c1,2.42,2.22,4.78,3.42,7.12a2.33,2.33,0,0,0,2.54,1.42,33.64,33.64,0,0,0,5.09-1.2c2.84-1,5.6-2.3,8.4-3.47,6-2.52,12-5.07,18.08-7.55,2.88-1.18,5.82-2.24,8.72-3.36,9.46-3.63,18.92-7.23,28.36-10.9,1.6-.63,3-1.74,4.63-2.37,6.68-2.61,13.42-5.08,20.09-7.7q12.7-5,25.33-10.1c5.53-2.25,11-4.63,16.52-6.94,1.18-.49,2.41-.85,3.59-1.33,3.62-1.46,7.23-2.95,10.83-4.44a24.23,24.23,0,0,0,12-11.16l39.86-57.39c-3,11.77-14.68,69.55-15.73,76-1.52,9.47-3.52,18.84-5.86,28.14-.47,1.85-.69,3.75-1,5.64-.47,2.74-1,5.47-1.39,8.22-.65,4.67-1.28,9.34-1.78,14q-1.29,12-2.39,24.09c-.46,5.09-.76,10.2-1.06,15.3-.25,4.47-.42,8.95-.57,13.42-.07,2.14-.76,3.51-3,4.24-4.62,1.49-9.17,3.18-13.66,5-6,2.49-12,5.23-18,7.79-6.53,2.79-13.15,5.38-19.62,8.3-3.16,1.43-6.28,2.91-9.78,2.81a77.71,77.71,0,0,1-11.2-1c-9.49-1.68-18.95-3.61-28.42-5.44-5.56-1.07-11.09-2.38-16.7-3.14-6.12-.84-12.34-1-18.14,1.7a45,45,0,0,0-6.88,4.27,31.85,31.85,0,0,1-5.82,3.7c-1.7.69-3.26,1.71-5,2.4a24.59,24.59,0,0,1-16.87.67c-3.35-1-6.86-1.53-10.22-2.52a65.93,65.93,0,0,1-6.6-2.72,31.21,31.21,0,0,1-4.17-1.72c-2.39-1.41-5.16-2.61-6.86-4.66-2.44-3-5.28-5.53-7.72-8.47-2.84-3.44-5.77-6.81-8.55-10.3-4.62-5.8-9.11-11.7-13.73-17.5-3.78-4.74-7.76-9.32-11.49-14.09s-7.19-9.35-10.52-14.2c-3.56-5.19-6.74-10.64-10.26-15.85a28,28,0,0,1-3.64-7.73c-.49-1.6-1.17-3.14-1.78-4.7-1.37-3.46-1.71-7.13-2.23-10.76-.81-5.62-1.62-11.23-2.33-16.86-.26-2.12-.22-4.27-.33-6.54,4-.22,7.06-2.14,10.23-3.74,5.54-2.8,11-5.84,16.46-8.73,4.59-2.41,9.22-4.74,13.81-7.14,4.87-2.55,9.7-5.2,14.59-7.72,5.6-2.88,11.26-5.67,16.88-8.51,5.4-2.74,10.78-5.53,16.2-8.23,6.49-3.24,13-6.42,19.53-9.59q10-4.84,20.08-9.62c5.76-2.72,11.58-5.34,17.36-8q10.76-4.95,21.5-9.91c3.18-1.47,6.39-2.89,9.58-4.36s6.38-2.9,9.52-4.44a16.59,16.59,0,0,0,6.6-6.43c2.81-4.44,5.7-8.83,8.54-13.25,2.42-3.76,4.81-7.54,7.24-11.3,3-4.68,6.1-9.35,9.15-14,.48-.74.89-1.53,1.42-2.22a12.14,12.14,0,0,1,2.19-2.43c2.1-1.55,3.44-3.3,2.56-6.1a11.36,11.36,0,0,1-.23-2.62c-.27-3.91-.55-7.81-.81-11.71,0-.56,0-1.13-.05-1.68-.25-1.69.47-2.55,2-3.26,9.52-4.31,19.26-8.07,29.09-11.64,5.08-1.85,10-4.11,15.08-6,3.88-1.46,7.86-2.66,11.8-4a12.14,12.14,0,0,0,1.84-.5c7.73-4.07,16.05-6.64,24.21-9.63,7-2.57,14-5.23,21-7.85,3.13-1.16,6.19-2.64,9.41-3.39,3.59-.84,6.81-2.54,10.28-3.64,4.1-1.31,8.12-2.85,12.13-4.41a4.26,4.26,0,0,1,4.79.79,30.74,30.74,0,0,0,6.53,4.36c3.74,1.74,7.72,1.19,11.46-.2,5.75-2.13,11.41-4.52,17.11-6.77,1.71-.68,3.45-1.27,5.17-1.91,6.06-2.27,12.13-4.49,18.16-6.82,5.65-2.17,11.25-4.49,16.89-6.68,2.82-1.1,5.72-2,8.55-3.12a29.88,29.88,0,0,0,4.53-2,4.67,4.67,0,0,0-1.06-4.06,4.9,4.9,0,0,1-.7-.83c-5.26-4.16-9-11.28-12-16.86a5.81,5.81,0,0,1-.47-1.15,44.11,44.11,0,0,1-2.08-4.05l-3.86,2.24c-.9-.84-1.74-1.57-2.52-2.35-5.39-5.34-9.88-11.46-14.64-17.33-2.31-2.84-4.49-5.79-6.87-8.58a38.62,38.62,0,0,1-7.15-13.39c-1.21-.29-1.14-1.43-1.41-2.28-1.67-5.24-3.19-10.52-4.94-15.74a71.67,71.67,0,0,0-3.87-9.77c-1.8-3.54-4-6.87-6.15-10.23-2.82-4.43-5.77-8.79-8.59-13.22-2.39-3.76-4.74-7.54-7-11.38-1.82-3.09-3.49-6.27-5.18-9.43-.48-.9-.88-1.87-1.33-2.91a6.33,6.33,0,0,1-.78-.61,4.24,4.24,0,0,1-.9-1.28c-2.21.47-4.32,2.39-6.06,3.69.7.27,1.14,1,1.86,2.36.58,1.14,1,2.34,1.55,3.51,2.11,4.9,4.21,9.81,6.35,14.7,1,2.34,2.15,4.63,3.16,7a15.15,15.15,0,0,1,.88,3,4.78,4.78,0,0,1-2.58,5.61c-.69.39-1.45.66-2.15,1.05-1.59.87-2.08,2-1.64,3.54a3.35,3.35,0,0,0,3.42,2.45,5.63,5.63,0,0,0,1.39-.33c2.77-.91,5,0,6.94,2a21.59,21.59,0,0,1,4.42,6.49c1.32,3.14,2.75,6.24,4.2,9.33.7,1.52,1.6,2.94,2.33,4.44,2,4.23,4.05,8.48,6.07,12.72.93,1.83,1.88,3.65,2.78,5.5,1.23,2.5,2.49,5,3.6,7.55.79,1.81.7,1.93-1,2.78-3.76,1.91-7.53,3.81-11.33,5.65-5.44,2.62-10.9,5.23-16.39,7.74a23.93,23.93,0,0,1-5,1.6,36.63,36.63,0,0,0-9.51,3.73c-1.9,1-3.67,2.25-5.59,3.21a10.41,10.41,0,0,0-5.92,7.07,46.39,46.39,0,0,0,.29,8.32,43.94,43.94,0,0,1-1.31,18.27,3,3,0,0,1-1.91,2.19q-9.84,4.07-19.64,8.26c-5.27,2.26-10.48,4.63-15.77,6.85-6.76,2.84-13.56,5.58-20.34,8.37l-22.09,9.1c-.45.18-.88.39-1.34.54-1.77.55-2.39.24-3.12-1.5-1.63-3.9-3.18-7.83-4.93-11.68-1.37-3-3-6-4.48-9a11.46,11.46,0,0,1-.48-1.54c-3.34-5.92-6.69-11.85-10.16-18,.88-.36,1.62-.6,2.3-.94,1.55-.78,3.05-1.67,4.63-2.41a3,3,0,0,0,1.83-3.5c-.05-.47-.09-.95-.13-1.42-2.39-1.75-4.69-1-6.89.36a17,17,0,0,1-5.29,2.06c-5-12.09-9.29-24.3-13.38-36.69a25,25,0,0,1,2.87-1.71c5.78-2.41,11-6.05,17.23-7.49a3.36,3.36,0,0,0,2.44-4.26c-.7-2.06-2.42-2.78-4.63-2l-9.44,3.39c2.66-2.34,3.15-8.42,3.61-11.64a25.07,25.07,0,0,0-1.8-13.62c-.68-1.59-1.63-3.06-2.58-4.8,1.39-.46,2.59-.84,3.76-1.27a206.68,206.68,0,0,0,20.62-8.34c4.51-2.22,9.12-4.25,13.56-6.61,5.37-2.85,10.47-6.16,14.33-11a23.44,23.44,0,0,0,2.8-5,3,3,0,0,0-.63-3.55,3.26,3.26,0,0,0-3.57-.66c-1.95.71-3.85,1.57-5.8,2.27q-6.63,2.4-13.3,4.71c-6.25,2.14-12.51,4.29-18.79,6.34-3.94,1.28-8,2.33-11.91,3.59-1.88.59-3.65,1.52-5.53,2.1-9.29,2.9-18.61,5.73-27.92,8.57-5.25,1.6-10.51,3.17-15.77,4.77-4.07,1.23-5.42,3.15-5.13,7.43a2.62,2.62,0,0,1-.6,2.17,103.35,103.35,0,0,0-10.63,15.29,4.14,4.14,0,0,1-2.12,1.73c-6.51,2.1-12.33,5.65-18.42,8.61-6.59,3.2-13.06,6.65-19.57,10-1.32.69-2.58,1.5-4,2.31-2.75-2.86-5.92-2.76-9.19-1.64a28.67,28.67,0,0,0-3.22,1.53q-9.78,4.8-19.55,9.61c-4.72,2.33-9.46,4.64-14.12,7.09q-10.26,5.4-20.4,11c-5.64,3.13-11.21,6.4-16.77,9.67-6,3.52-12,7.06-17.86,10.68-5.24,3.2-10.42,6.5-15.58,9.82s-10,6.56-15,9.88c-2,1.32-3.9,2.76-5.88,4.08s-3.54.53-4-1.75a11,11,0,0,1-.1-1.91q-.06-7.56-.09-15.11a6.7,6.7,0,0,1,1.6-4.87,6.15,6.15,0,0,0,1.19-2c.52-1.4.91-2.85,1.36-4.27a7.69,7.69,0,0,0-5.06,2.36c-4.8,4.29-9.52,8.69-14.24,13.07-4.37,4.06-8.69,8.18-13.07,12.23-5.55,5.14-11.16,10.22-16.72,15.35a37.37,37.37,0,0,0-8.38,10.95,48.36,48.36,0,0,0-4.38,11.31,30.3,30.3,0,0,0-.7,4c-.36,4.6-.64,9.21-1,13.82l-1.44,8.48a5.33,5.33,0,0,0,1,4,8.94,8.94,0,0,0,4.73,3.78c3.09.41,4.35,2,4.39,5.42.17.6.32,1.21.52,1.81s.3,1.56.77,2c3,2.51,4.21,6.29,6.81,9,1,.24,2,.41,3,.74a5.93,5.93,0,0,0,5.66-.88c1.57-1.11,3.11-2.24,4.74-3.25a6.21,6.21,0,0,1,2.43-.86c1.1-.14,1.72.46,2.38,1.5,2.63,4.2,1.75,8.49.76,12.84a11.45,11.45,0,0,0,.36,7.26,27.45,27.45,0,0,1,1.16,4.13,52.25,52.25,0,0,0,8.75,18.46c.65.9,1.24,1.84,2,2.91a5.74,5.74,0,0,1-1.42.83c-4.2.94-7.86,3.05-11.51,5.19a3.57,3.57,0,0,0-1,.71c-1.73,2-4.16,2.87-6.49,3.9-2,.87-3.88,1.87-5.84,2.76a10.48,10.48,0,0,0-5.37,4.88c-3,5.49-2.7,11.17-.73,16.86,1,3,2.36,5.9,3.56,8.84l7.25,11.69,4.86,6.63c-.77.53-1.55,1-2.31,1.58-4.86,3.45-9.74,6.87-14.55,10.4a35.26,35.26,0,0,0-4.61,4.12,7,7,0,0,0-2.13,5.41,15.11,15.11,0,0,1-.09,1.9l1.17,4c1.14,2.68,2.27,5.37,3.41,8.06a30,30,0,0,1,1.46,2.67,1.81,1.81,0,0,1-.06,1.35,11.08,11.08,0,0,0-.75,6.53c1.48,10.9,3.28,21.75,6.81,32.21,1.47,4.36,2.77,8.8,4.9,12.9,1.83,3.5,4.4,6.15,8.7,6,5.5-.19,11-.5,16.47-.86,4.05-.27,8.09-.71,12.13-1,2.54-.21,5.09-.35,7.63-.53,3.61-.43,7.23-.81,10.84-1.31a2.56,2.56,0,0,1,3.12,1.8c2.54,3,5.15,6,7.61,9.16,2.87,3.63,5.64,7.34,8.42,11,2.26,3,4.48,6,6.69,9,.61.84,1.08,1.77,1.68,2.62,3.67,5.22,8,9.73,13.75,12.71,2.4,1.24,4.87,2.37,7.25,3.65,1.72.94,3.4,2,5,3.09a30.19,30.19,0,0,0,13.93,5.34c2.93.31,5.9.26,8.83.54,2.05.2,4.07.74,6.12,1,4.41.65,8.83,1.22,13.24,1.85,2.89.42,5.76.89,8.64,1.34,5.25.24,10.49.45,15.74.73,3.25.18,6.5.48,9.75.72,7.42.19,14.85.22,22.27.63,5.95.33,11.88,1.18,17.83,1.71,6.59.59,13.18,1.14,19.78,1.56,4.62.3,9.27.2,13.88.54,7.95.59,15.92.74,23.85,1.66a50.53,50.53,0,0,0,20.85-2c5.35-1.65,10.28-4.25,15.27-6.75a37.74,37.74,0,0,1,7.47-2.52c5-1.28,8.12-4.26,9.27-9.26.32-1.39.35-2.85.62-4.25.21-1.07.67-2.1.88-3.17.69-3.44,1.4-6.88,1.94-10.34,1.12-7.24,2.15-14.5,3.2-21.76.73-5.05,1.38-10.11,2.16-15.15.85-5.43,1.84-10.84,2.7-16.26.57-3.54,1-7.1,1.53-10.65q1.13-7.82,2.26-15.62c1-7.1,2.09-14.2,3.11-21.3.82-5.76,1.29-11.59,2.49-17.27,1.59-7.5,2.19-15.13,3.55-22.65.63-3.53,1-7.1,1.52-10.65.14-.95,4.77-49.89,4.77-49.89,2.26-2.88,4.73-5.6,7.1-8.4s4.72-5.81,7.24-8.58a17.27,17.27,0,0,0,3.92-6.18c1.25-3.74,4.33-6.1,7.34-8.28,4.58-3.32,9.39-6.32,14.11-9.45,3.72-2.46,7.49-4.86,11.17-7.39,2.69-1.86,5.26-3.89,7.88-5.84.44-.33.9-.64,1.58-1.13,1.52,1.42,3.1,2.73,4.44,4.26a4.59,4.59,0,0,1,.59,2.47c.08.78-.1,1.59-.06,2.39a2.34,2.34,0,0,0,1.71,2.37c2.64.46,5.35.8,7.9-.53,1.43-1.58,2.88-3.15,4.29-4.74,2.05-2.32,4.11-4.62,6.09-7s4.27-4.24,7.44-4.72a53.77,53.77,0,0,0,13.41-4c1.16-.69,2.29-1.42,3.48-2,1.79-.94,3.59-1.86,5.4-2.78a48.23,48.23,0,0,1,7.72-4.1c4.69-2.17,8.51-5.8,12.74-8.72,7.7-5.3,15.75-9.85,23.09-15.62a12.12,12.12,0,0,1,1-3.14A5.5,5.5,0,0,1,7522.33,7107.7Zm-408.68-14.85c2.31-1.4,4.46-3.07,6.71-4.55,1.18-.77,2.22-1.85,4-2,.15,1.37.38,2.68.41,4a161.37,161.37,0,0,0,2,23.85c.44,2.52.94,5,1.45,7.52a6.38,6.38,0,0,0,.48,1.2h3.43c.1-.12.18-.29.3-.36,5.88-3.19,11.64-6.62,17.66-9.48a98,98,0,0,0,15.3-9.63,21.81,21.81,0,0,1,2.78-1.87c3.38-1.72,5.25-4.8,7.15-7.84a6.86,6.86,0,0,0,.49-2c-.37-1.19-.71-2.38-1.12-3.55-2.43-6.86-3.12-14.13-4.93-21.13-.67-2.59-.36-4.92,1.82-6.7,2.34-1.91,4.65-3.85,7.1-5.6s5.06-3.3,7.6-4.94a147,147,0,0,1,13.83-10.19,100,100,0,0,1,16.68-8.75,2.73,2.73,0,0,1,.88-.36c3.16-.17,4.15-2.56,5.06-5a40.94,40.94,0,0,0,1.35-4.33,4.61,4.61,0,0,0-1.39-4.59,4.21,4.21,0,0,1-1.35-3.65c.18-2.22.26-4.46.58-6.66a14.85,14.85,0,0,1,1.15-3.09,6.72,6.72,0,0,1,.26-1.82c2.31-5.07,5-10,8.95-13.93,5.26-5.16,11.55-8.43,19.28-7.79a40.3,40.3,0,0,1,5.91-.08,19.52,19.52,0,0,0,11.16-1.44,18.11,18.11,0,0,1,3.89-1.11,2.08,2.08,0,0,1,2.38.67c3,4.36,5.69,8.87,5.47,14.46a15.34,15.34,0,0,1-1.88,6.85c-.78,1.43,2,7.05,2.77,8.51-3.1,1.69-6.21,3.38-9.3,5.1-1.32.73-2.57,1.57-3.85,2.36a4.9,4.9,0,0,0-.56,4.14,2,2,0,0,1-1.26,2.69c-2.38.89-4.78,1.69-7.21,2.44-3.73,1.15-7.5,2.16-11.22,3.36-3,1-6,2.15-9,3.21-3.55,1.25-4.65,3-4.12,6.74a56.8,56.8,0,0,0,3.72,12.83c1,2.45,1.91,4.9,3,7.3s1.84,2.84,4.3,2.38a53.53,53.53,0,0,0,6.81-2c3.78-1.26,7.54-2.57,11.31-3.88,3.23-1.12,6.43-2.36,9.7-3.38,3.52-1.1,3.56-1,4.9,2.46.36,1,.62,1.94.92,2.92.45.74.89,1.48,1.34,2.21a10.74,10.74,0,0,0,1.43,2.19c3.35,3.1,5.16,7.25,7.55,11,1.63,2.55,3,5.27,4.44,7.93a3,3,0,0,1,.15.92,11.33,11.33,0,0,1,1.39,1.89q3.9,8.35,7.7,16.76c1,2.23,1.93,4.49,2.94,6.84a16.33,16.33,0,0,1-1.66.94c-5.64,2.21-11.29,4.39-16.93,6.59-3.64,1.42-7.31,2.78-10.91,4.3a2.83,2.83,0,0,1-3.28-.47c-6.53-5.64-13.12-11.2-18.76-17.78a4.38,4.38,0,0,1-.48-1.05,13.71,13.71,0,0,1-1.39-.82c-2.56-1.93-5.09-2.48-8.18-.88a75,75,0,0,1-13.63,5c-7.11,2.07-14.22,4.16-21.23,6.55-9.19,3.14-18.29,6.54-27.4,9.9s-17.87,6.75-26.84,10c-9.41,3.47-18.85,6.83-28.27,10.25-1,.38-2,.94-3.06,1.31-2.8,1-4,.16-4.59-3a19.51,19.51,0,0,1-.12-2.87,9.54,9.54,0,0,0-1.17-.2c-3.49-.18-4.8-2.55-5.31-5a132.8,132.8,0,0,1-2.32-14.4c-.51-5.32-.54-10.68-.72-16C7110.06,7095.78,7111.5,7094.14,7113.65,7092.85Z" transform="translate(-6777.67 -6777.67)"/><path class="cls-6" d="M7586.57,6959.23c-.93.15-1.89.22-2.8.45-4,1-7.49,3-11,5.1a66.91,66.91,0,0,1-7.35,4,4,4,0,0,0-2.68,3.85,5.21,5.21,0,0,1-3.07,4.75,36,36,0,0,1-4.19,2.24c-2.26.84-2.87.41-3.44-1.93-.51-2.11-1.22-2.42-3.16-1.26-4.18,2.49-8.32,5-12.5,7.52-1.3.77-2.66,1.44-4,2.18a130.11,130.11,0,0,1-16,7.42,15.65,15.65,0,0,1-5.39.77,4.43,4.43,0,0,1-4.37-4.71,5.36,5.36,0,0,1,.65-2.52c1.29-1.92,1.64-4.12,2.2-6.27a11.3,11.3,0,0,1,2.67-5.28,2.43,2.43,0,0,0,.66-1c1-3.69,4-4.88,7.15-5.52a59.74,59.74,0,0,0,12-3.82c4.47-1.93,8.85-4.06,13.25-6.14a5.81,5.81,0,0,0,1.19-1l2.05-1.44c-1-2.4-1.61-4.78-3.13-6.79a10.7,10.7,0,0,1-.89-1.4,21.52,21.52,0,0,0-11.87-10.52,16.68,16.68,0,0,0-3.76-.6,3.75,3.75,0,0,1-3.33-2.64c-.37-1.22.84-3.09,2.51-3.59,2.13-.65,4.32-1.13,6.48-1.68q9.24-2.39,18.49-4.77c2.08-.54,4.14-1.24,6.25-1.6a9.75,9.75,0,0,0,4.78-2.51,15.7,15.7,0,0,1,2-1.24,42.46,42.46,0,0,1,13.25,2.94c1.38.6,2.71,1.33,4.06,2-1.51,2.65-.73,4.94.87,7.29a82.86,82.86,0,0,1,4.35,7.4,2.91,2.91,0,0,0,3.33,1.68,27.06,27.06,0,0,1-.54,5.44c-1.27,4.28-2.83,8.47-4.3,12.69C7587,6958.9,7586.73,6959.05,7586.57,6959.23Z" transform="translate(-6777.67 -6777.67)"/><path class="cls-6" d="M7348.65,7161c-1.09-.19-2-.27-2.8-.5-2.78-.75-3.77-1.8-4-4.63a4.42,4.42,0,0,0-2-3.59,9.85,9.85,0,0,1-1.58-1.45,5,5,0,0,1,1.17-7.8c1.09-.66,2.26-1.18,3.37-1.81,7.59-4.29,15.83-7,24-9.85a12.64,12.64,0,0,1,3.53-.56,3.68,3.68,0,0,1,3.51,1.64,18.46,18.46,0,0,1,2.72,12.52,9.6,9.6,0,0,1-5.82,7.9c-3.48,1.57-7.09,2.84-10.64,4.26-2.43,1-4.81,2.08-7.27,2.95A30.71,30.71,0,0,1,7348.65,7161Z" transform="translate(-6777.67 -6777.67)"/><path class="cls-6" d="M7145.73,7358.76a8.3,8.3,0,0,1-1.52,2.22c-3.19,2.5-6.42,4.87-10.47,6a20.36,20.36,0,0,0-7.91,3.8,11,11,0,0,1-1.85,1.09,3.94,3.94,0,0,1-5.63-1.71,9,9,0,0,1-.84-2.23,18.94,18.94,0,0,0-5.42-9.37c-.06,0-.11-.11-.17-.17-2.8-3-2.45-5.31,1.26-7.15,6.19-3.07,12.41-6.07,18.62-9.1q.33-.16.66-.3c3.65-1.56,5.54-.65,7.1,3,1.42,3.37,3.13,6.61,4.7,9.92.4.86.77,1.74,1.13,2.62C7145.51,7357.73,7145.55,7358.05,7145.73,7358.76Z" transform="translate(-6777.67 -6777.67)"/><path class="cls-6" d="M7433.49,7168.65a27.76,27.76,0,0,1-2.06,10.72,21.62,21.62,0,0,1-6.73,8.81,48.76,48.76,0,0,1-7.55,4.46c-3.25,1.67-6.38,3.59-9.55,5.4l-5-.35c2.72-3.72,5.06-7,7.47-10.19s4.71-6,7-9.06c1.84-2.4,3.59-4.89,5.48-7.25a6.44,6.44,0,0,1,4.85-2.64c1.78-.1,3.56-.5,5.38-.77Z" transform="translate(-6777.67 -6777.67)"/><path class="cls-6" d="M7179.56,7065.07c2.62,4,3,8.32,2.83,12.77-1.93.77-2.87.56-3.7-.76-1.64-2.6-1.47-9.13.3-11.63A4.74,4.74,0,0,1,7179.56,7065.07Z" transform="translate(-6777.67 -6777.67)"/><path class="cls-4" d="M6986.48,7296.35c4.81-3.53,9.7-7,14.56-10.4.76-.54,1.53-1.05,2.3-1.58l-4.86-6.63c-6.77,2.35-13.54,4.73-20.32,7.05-3.48,1.19-7,2.22-10.48,3.4-6.41,2.19-12.79,4.45-19.19,6.65-2.11.73-4.28,1.3-6.39,2-2.7.93-5.48,1.67-7.93,3.26a16.23,16.23,0,0,1-2.91,1.18c-1-2.26-1.88-4.35-2.72-6.46a1.32,1.32,0,0,1,.63-1.83c.72-.35,1.45-.68,2.18-1,5.73-2.42,11.47-4.82,17.19-7.25,3.53-1.5,7-3,10.54-4.56q11.63-5.05,23.25-10.14c3-1.31,5.94-2.68,8.9-4-1.19-2.94-2.52-5.84-3.56-8.84-2-5.69-2.29-11.37.74-16.86a6.92,6.92,0,0,0-1.8.49c-5.15,3-10.26,6.1-15.41,9.11-1.1.64-2.3,1.1-3.46,1.64-5.33,2.53-10.71,5-16,7.59-6.43,3.19-12.79,6.5-19.17,9.79-2.76,1.42-5.5,2.9-8.25,4.34-.7.37-1.42.68-2.41,1.15l-.15-.51a4.07,4.07,0,0,1-.92.35c2.09,11,7.1,21.27,12,31.25,4.75,9.69,8.42,20.7,15.06,29.36l0-.1c.6-.35,1-.62,1.42-.81q5.79-2.57,11.59-5.09c4.46-1.93,8.9-3.94,13.42-5.74,3.25-1.29,6.62-2.27,9.94-3.39l-3.4-8.05c-.49.25-1,.55-1.47.75-3,1.16-5.94,2.27-8.89,3.47-5.23,2.11-10.43,4.31-15.66,6.41-3.75,1.51-7.55,2.91-11.49,4.42l-2.37-4.05c.78-.39,1.24-.67,1.74-.86l28.75-11,8.22-3.12a17.26,17.26,0,0,0,.09-1.9,7,7,0,0,1,2.12-5.41A35.92,35.92,0,0,1,6986.48,7296.35Z" transform="translate(-6777.67 -6777.67)"/><path class="cls-4" d="M6929,7217.28c3.52-2.18,7.05-4.34,10.55-6.56,6.92-4.38,13.82-8.81,20.75-13.2,4.11-2.59,8.28-5.1,12.37-7.72,3.14-2,6.19-4.18,9.33-6.22,1.87-1.22,3.82-2.3,5.72-3.47a10.1,10.1,0,0,0,1.1-.88c-2.61-2.75-3.85-6.53-6.82-9-.47-.4-.55-1.29-.77-2s-.35-1.21-.52-1.81l-5.53,3.74c-3.36,2.27-6.74,4.53-10.09,6.83-7.16,4.92-14.3,9.89-21.47,14.8-5.78,4-11.61,7.86-17.41,11.8-2,1.34-3.91,2.76-5.9,4.08s-3.86,1.12-4.94-.66-.5-3.72,1.52-5.08c4.22-2.85,8.37-5.8,12.58-8.69s8.45-5.72,12.65-8.61c3-2.07,6-4.24,9-6.31,3.68-2.54,7.4-5,11.08-7.54,4.72-3.24,9.43-6.52,14.14-9.78a8.92,8.92,0,0,1-4.74-3.78c-1.12.72-2.24,1.46-3.37,2.16-4.12,2.58-8.32,5-12.35,7.75-5.93,4-11.75,8.18-17.59,12.32-3.84,2.73-7.7,5.43-11.42,8.3-4.73,3.64-9.33,7.45-14,11.18-.53.42-1.09.8-1.92,1.41a12.21,12.21,0,0,1-.27-4.81,2.85,2.85,0,0,1,1.21-1.65c7-4.85,14-9.64,21-14.49,2.43-1.67,4.75-3.48,7.17-5.16,4.76-3.32,9.56-6.59,14.35-9.88l16.17-11.09q.73-4.25,1.45-8.48c-2.29,1.41-4.59,2.81-6.87,4.25-.67.42-1.24,1-1.9,1.44-3.71,2.49-7.46,4.9-11.12,7.44-6.28,4.37-12.48,8.83-18.74,13.23-2.27,1.6-4.64,3.07-6.92,4.68-4.1,2.89-8.16,5.85-12.26,8.76-1,.69-2,1.3-3.45,2.2-1.07,7.92-.11,16.14.1,24.08a103.1,103.1,0,0,0,2.15,16.8c.35-.75,1.15-1.26,2.74-2.23C6920.18,7222.75,6924.56,7220,6929,7217.28Z" transform="translate(-6777.67 -6777.67)"/><path class="cls-4" d="M7113.53,7245.06l4.48,1.69a19,19,0,0,1,6.56,4.29c2,1.89,1.62,4.23-.77,5.51q-11.18,6-22.38,11.92-8.22,4.36-16.49,8.65c-4.24,2.2-8.53,4.28-12.74,6.52-3.86,2.07-7.64,4.28-11.44,6.46a11.9,11.9,0,0,1-6.16,2.07,158.29,158.29,0,0,1-.55-20.63c1.24-.85,2.44-1.77,3.72-2.55,5.7-3.46,11.36-7,17.15-10.28,4.22-2.4,8.59-4.53,12.92-6.73,1.56-.8,3.18-1.46,4.77-2.2,3.6-1.68,7.18-3.38,10.79-5a9.51,9.51,0,0,1,8.31-.14A10.89,10.89,0,0,0,7113.53,7245.06Z" transform="translate(-6777.67 -6777.67)"/><path class="cls-5" d="M7478.54,6900.78c4.24-.38,8.49-.8,12.74-1.11,2-.15,4-.1,5.94-.14a20.59,20.59,0,0,0,9.46,1.81c3.85-.06,7.38,1,10.95,2.06q5.59,1.65,11.15,3.41c2.64.84,5.25,1.76,7.87,2.63,8.36,2.79,16.74,5.55,25.09,8.39a10.21,10.21,0,0,1,4,2.15,15.82,15.82,0,0,0-2,1.24,9.75,9.75,0,0,1-4.78,2.51c-2.11.36-4.16,1.06-6.25,1.6l-18.49,4.77c-2.16.55-4.34,1-6.48,1.68-1.67.5-2.88,2.37-2.51,3.59a3.72,3.72,0,0,0,3.33,2.63,16.69,16.69,0,0,1,3.76.61,21.52,21.52,0,0,1,11.87,10.52,9.81,9.81,0,0,0,.9,1.4c1.51,2,2.15,4.39,3.12,6.78l-2,1.45a5.15,5.15,0,0,0-4.6-2.05,15.69,15.69,0,0,0-3.92.84c-2.57.82-5.07,1.84-7.66,2.61-5.95,1.76-12.06,3-17.67,5.83a12.41,12.41,0,0,1-3.71.72,2.05,2.05,0,0,1-2.19-1.12c-.83-1.36-1.65-2.72-2.54-4-2.13-3.17-4.21-6.38-6.49-9.44a18.56,18.56,0,0,0-3.54-3.17,2,2,0,0,0-1.55-.3c-2.67.74-3.58,3.56-1.73,5.56a84.45,84.45,0,0,1,10.06,14.2,18.52,18.52,0,0,1,1.63,3.46c.69,2.05.19,3.12-1.78,4-3.19,1.43-6.35,3-9.62,4.2-6.49,2.45-13,4.72-19.57,7.06-1.72.62-3.49,1.16-5.15,1.92-3.48,1.58-6.89,3.35-10.86,3.26-1.21-.3-1.14-1.44-1.41-2.28-1.67-5.24-3.19-10.53-4.94-15.74a72.31,72.31,0,0,0-3.87-9.78c-1.79-3.53-4-6.86-6.15-10.22-2.82-4.44-5.76-8.79-8.59-13.22-2.39-3.76-4.74-7.54-7-11.38-1.82-3.09-3.49-6.27-5.18-9.43-.58-1.09-1-2.25-1.62-3.56l3-.8c2.47-.63,5-1.21,7.41-1.91,6.73-1.93,13.4-4.07,20.16-5.83,8.25-2.16,16.58-4,24.88-6C7474.16,6901.65,7476.35,6901.24,7478.54,6900.78Z" transform="translate(-6777.67 -6777.67)"/><path class="cls-5" d="M7360,7256.58c-2.41.42-4.1,2.05-5.71,3.66-4.07,4.06-6.23,9.21-7.95,14.58a139.25,139.25,0,0,0-4.52,20.29c-1.52,9.47-3.52,18.83-5.86,28.14-.46,1.84-.69,3.75-1,5.64-.47,2.74-1,5.47-1.39,8.22-.65,4.67-1.27,9.34-1.78,14q-1.29,12-2.39,24.09c-.46,5.09-.76,10.2-1.06,15.3-.25,4.47-.42,8.95-.57,13.42-.07,2.14-.76,3.5-3,4.24-4.61,1.49-9.17,3.18-13.65,5-6.05,2.48-12,5.23-18,7.79-6.54,2.79-13.16,5.38-19.63,8.3-3.16,1.43-6.28,2.91-9.77,2.81a77.72,77.72,0,0,1-11.21-1c-9.49-1.68-18.94-3.61-28.41-5.44-5.57-1.07-11.1-2.38-16.7-3.14-6.13-.84-12.35-1-18.15,1.7a45,45,0,0,0-6.88,4.27,31,31,0,0,1-5.82,3.69c-1.7.7-3.26,1.72-5,2.41a24.59,24.59,0,0,1-16.87.67c-3.35-1-6.86-1.53-10.22-2.52a71,71,0,0,1-6.6-2.72,31.08,31.08,0,0,1-4.16-1.72c-2.4-1.41-5.17-2.61-6.86-4.66-2.45-3-5.29-5.53-7.73-8.47-2.84-3.44-5.77-6.81-8.55-10.3-4.62-5.8-9.11-11.71-13.73-17.5-3.78-4.74-7.76-9.32-11.48-14.09s-7.19-9.35-10.53-14.2c-3.56-5.19-6.73-10.64-10.26-15.85a28,28,0,0,1-3.64-7.73c-.49-1.6-1.17-3.14-1.78-4.7-1.37-3.46-1.71-7.13-2.23-10.76-.81-5.62-1.62-11.23-2.32-16.86-.27-2.12-.23-4.27-.34-6.54,4-.22,7.06-2.14,10.23-3.74,5.54-2.8,11-5.84,16.47-8.73,4.58-2.41,9.21-4.74,13.8-7.14,4.87-2.55,9.7-5.2,14.59-7.72,5.6-2.88,11.26-5.67,16.88-8.51,5.41-2.74,10.78-5.53,16.2-8.23,6.49-3.24,13-6.42,19.54-9.59s13.36-6.46,20.07-9.62c5.77-2.72,11.58-5.34,17.37-8l21.49-9.92c3.19-1.46,6.4-2.88,9.58-4.35s6.38-2.9,9.52-4.44a16.53,16.53,0,0,0,6.6-6.43c2.81-4.44,5.7-8.83,8.54-13.25,2.42-3.76,4.81-7.55,7.24-11.3,3-4.68,6.1-9.35,9.15-14,.48-.74.89-1.53,1.42-2.22a12.14,12.14,0,0,1,2.19-2.43c2.11-1.56,3.44-3.3,2.56-6.1a11.36,11.36,0,0,1-.23-2.62c-.27-3.91-.55-7.81-.81-11.71,0-.56,0-1.13-.05-1.68-.25-1.69.47-2.55,2-3.26,9.53-4.31,19.26-8.07,29.09-11.64,5.08-1.85,10-4.11,15.09-6,3.88-1.46,7.85-2.67,11.79-4a12.14,12.14,0,0,0,1.84-.5c7.73-4.07,16.05-6.64,24.21-9.63,7-2.57,14-5.23,21.05-7.85,3.12-1.16,6.18-2.64,9.4-3.39,3.59-.84,6.82-2.54,10.28-3.64,4.1-1.31,8.12-2.85,12.13-4.41a4.26,4.26,0,0,1,4.79.79,30.74,30.74,0,0,0,6.53,4.36c3.75,1.73,7.72,1.19,11.46-.2,5.75-2.13,11.41-4.52,17.11-6.78,1.71-.67,3.45-1.26,5.17-1.9,6.06-2.27,12.13-4.49,18.16-6.82,5.65-2.17,11.25-4.49,16.89-6.68,2.82-1.1,5.72-2,8.55-3.12,2.22-.85,4.48-1.6,6.33-3.27,1.15-1,2.55-.65,3.81.07a21.37,21.37,0,0,1,6.64,6.44c2.32,3.24,4.64,6.48,6.87,9.78a37.5,37.5,0,0,1,2.58,4.59c2,4.08,4,8.18,5.87,12.31,1.06,2.31,2,4.68,2.95,7a4.08,4.08,0,0,1-.13,3.69c-.29.51-.11,1.28-.16,2.24-1.11.55-2.5,1.29-3.94,1.94-2.18,1-4.4,1.91-6.58,2.9a4.72,4.72,0,0,1-3.69.13c-5.16-1.72-10.38-3.29-15.85-3.58a71,71,0,0,0-7.14.19c-4.71.23-8.62,2.46-12.44,5-1.47,1-3.09,1.66-4.65,2.47-4.32,2.25-8.7,4.37-12.94,6.75-4.93,2.76-10.37,4.72-14.71,8.42-3.18,2.72-7,4-10.58,5.88-4.17,2.18-8.19,4.62-12.31,6.87-2.52,1.38-5.14,2.56-7.65,4-3.06,1.7-6,3.54-9.07,5.31-2.12,1.24-4.2,2.6-6.41,3.67a78,78,0,0,0-9.81,6.21c-.79.54-1.53,1.15-2.33,1.67-4,2.59-8.13,5.06-12.08,7.77-5.71,3.92-11.38,7.91-16.91,12.08-3.94,3-7.52,6.41-11.43,9.42-3.72,2.87-7.67,5.45-11.52,8.16l-8.61,6c-1.5,1.06-3,2.12-4.5,3.16-2.94,2.05-6,4-8.81,6.16a14.14,14.14,0,0,0-5,6c-2.65,6.84-5.25,13.7-7.91,20.54-2.29,5.86-4.67,11.69-7,17.54-.68,1.71-1.16,3.5-1.91,5.17a11.48,11.48,0,0,1-2.06,3.13c-2.57,2.71-5.91,4.32-9.21,5.9-5.24,2.52-10.56,4.91-15.84,7.36-6.94,3.21-13.88,6.44-20.83,9.63q-8.58,3.93-17.2,7.79c-4.8,2.14-9.66,4.15-14.45,6.33-1.65.75-3.1,1.92-4.74,2.69-2.46,1.15-5,2.07-7.51,3.17-4.8,2.14-9.57,4.35-14.36,6.5-1.31.59-2.67,1.05-4,1.63q-8.54,3.73-17.07,7.52c-3.73,1.64-7.46,3.27-11.16,5-2.54,1.15-5,2.42-7.55,3.58a11,11,0,0,1-2.47.73,3.38,3.38,0,0,0-2.71,4.64c1,2.42,2.22,4.78,3.43,7.12A2.3,2.3,0,0,0,7156,7347a32.45,32.45,0,0,0,5.09-1.19c2.84-1,5.6-2.3,8.4-3.47,6-2.52,12-5.07,18.08-7.55,2.88-1.19,5.82-2.24,8.72-3.36,9.46-3.63,18.92-7.23,28.36-10.9,1.61-.63,3-1.74,4.63-2.37,6.68-2.61,13.42-5.08,20.1-7.7q12.69-5,25.32-10.1c5.53-2.25,11-4.63,16.52-6.94,1.18-.49,2.41-.85,3.59-1.33,3.62-1.46,7.23-3,10.83-4.44a24.19,24.19,0,0,0,12-11.16c2.6-4.66,5.53-9.14,8.42-13.63,4.1-6.38,8.19-12.76,12.48-19,3.84-5.58,7.89-11,11.94-16.45q6.74-9,13.67-17.87c2.26-2.88,4.73-5.6,7.1-8.4s4.72-5.82,7.24-8.58a17.14,17.14,0,0,0,3.92-6.18c1.25-3.74,4.33-6.1,7.34-8.28,4.58-3.32,9.39-6.32,14.11-9.45,3.72-2.47,7.5-4.86,11.17-7.39,2.69-1.86,5.26-3.89,7.88-5.84.44-.33.9-.64,1.58-1.13,1.52,1.42,3.1,2.73,4.44,4.26a4.59,4.59,0,0,1,.59,2.47c.08.78-.1,1.59-.06,2.39a2.34,2.34,0,0,0,1.71,2.37c2.64.46,5.35.8,7.9-.53-.25,2.42-1.42,3.6-3.69,3.69-.71,0-1.42,0-2.13,0l-.65-.87c-1.82.28-3.59.67-5.38.77a6.47,6.47,0,0,0-4.85,2.64c-1.89,2.37-3.63,4.85-5.48,7.26-2.33,3-4.73,6-7,9.05-2.42,3.21-4.76,6.47-7.48,10.19l5,.36a3.36,3.36,0,0,1-2.43,2.71,30.39,30.39,0,0,1-4.58,1.24,4.23,4.23,0,0,0-3.23,2.49,49.34,49.34,0,0,1-4.05,6.46c-3,3.84-6.25,7.45-9.25,11.27-3.26,4.13-6.31,8.42-9.53,12.58-2.92,3.78-5.79,7.63-9,11.19a15.93,15.93,0,0,0-4.41,8.78C7360.84,7255.59,7360.28,7256.07,7360,7256.58Zm-11.54-95.34a31.16,31.16,0,0,0,4.24-.92c2.46-.87,4.84-2,7.26-2.95,3.55-1.42,7.17-2.68,10.64-4.26a9.59,9.59,0,0,0,5.82-7.9,18.41,18.41,0,0,0-2.72-12.52,3.65,3.65,0,0,0-3.51-1.63,12.4,12.4,0,0,0-3.53.56c-8.19,2.81-16.42,5.55-24,9.84-1.11.63-2.28,1.16-3.37,1.81a5,5,0,0,0-1.17,7.8,9.51,9.51,0,0,0,1.59,1.45,4.43,4.43,0,0,1,2,3.59c.22,2.83,1.2,3.88,4,4.63C7346.45,7161,7347.32,7161.05,7348.41,7161.24ZM7145.49,7359a12.57,12.57,0,0,0-.34-1.32c-.36-.89-.72-1.77-1.13-2.63-1.57-3.3-3.28-6.55-4.7-9.92-1.56-3.68-3.45-4.6-7.1-3-.22.09-.44.2-.65.3-6.21,3-12.44,6-18.63,9.1-3.7,1.84-4.06,4.1-1.26,7.15l.17.18a18.72,18.72,0,0,1,5.42,9.36,9.63,9.63,0,0,0,.84,2.24,3.94,3.94,0,0,0,5.63,1.7,11,11,0,0,0,1.85-1.09,20.5,20.5,0,0,1,7.91-3.8c4.06-1.13,7.28-3.51,10.47-6A8.15,8.15,0,0,0,7145.49,7359Z" transform="translate(-6777.67 -6777.67)"/><path class="cls-5" d="M7300.33,7053.75c-2.39-1.74-4.68-1-6.89.37a17.27,17.27,0,0,1-5.29,2.06c-5-12.1-9.29-24.3-13.38-36.7a25.44,25.44,0,0,1,2.88-1.7c5.77-2.42,11-6.06,17.22-7.49a3.38,3.38,0,0,0,2.45-4.27c-.71-2.05-2.43-2.78-4.64-2l-9.44,3.39c0-.94-.08-1.87-.13-2.81,2.67-2.34,3.28-5.61,3.74-8.83a25.06,25.06,0,0,0-1.8-13.62c-.68-1.59-1.63-3.06-2.58-4.8,1.39-.47,2.59-.84,3.76-1.27a206.68,206.68,0,0,0,20.62-8.34c4.51-2.22,9.12-4.26,13.56-6.61,5.37-2.85,10.47-6.16,14.33-11a24,24,0,0,0,2.81-5,3,3,0,0,0-.64-3.55,3.24,3.24,0,0,0-3.57-.65c-1.95.71-3.84,1.56-5.8,2.27-4.42,1.6-8.85,3.18-13.3,4.7-6.25,2.15-12.51,4.3-18.79,6.34-3.94,1.29-8,2.34-11.91,3.59-1.88.6-3.65,1.53-5.53,2.11q-13.93,4.34-27.92,8.57c-5.25,1.6-10.51,3.17-15.77,4.76-4.06,1.24-5.42,3.16-5.12,7.44a2.67,2.67,0,0,1-.61,2.17,101.52,101.52,0,0,0-10.62,15.29,4.21,4.21,0,0,1-2.13,1.73c-6.51,2.09-12.33,5.65-18.42,8.61-6.59,3.2-13.06,6.65-19.57,10-1.32.68-2.58,1.5-4,2.31-2.75-2.87-5.92-2.77-9.19-1.65a30.61,30.61,0,0,0-3.22,1.54q-9.78,4.8-19.55,9.61c-4.72,2.33-9.46,4.63-14.12,7.09q-10.26,5.4-20.4,11c-5.64,3.13-11.2,6.4-16.77,9.67-6,3.51-11.94,7.05-17.86,10.67q-7.86,4.82-15.58,9.83c-5,3.24-10,6.56-15,9.87-2,1.33-3.89,2.76-5.88,4.09s-3.54.52-4-1.75a10.11,10.11,0,0,1-.11-1.91q-.06-7.56-.09-15.12a6.71,6.71,0,0,1,1.6-4.87,6.2,6.2,0,0,0,1.2-2c.52-1.4.91-2.85,1.35-4.28a93.4,93.4,0,0,1,9.25-14.46c3-3.92,6.18-7.69,9.28-11.53q6.15-7.62,13-14.62c2.37-2.45,4.78-4.87,7.27-7.19A93.79,93.79,0,0,1,7083,7008c4.41-3.27,9-6.3,13.56-9.34,8.09-5.38,16.25-10.68,24.36-16,3.31-2.19,6.66-4.36,9.86-6.72,4.75-3.49,9.36-7.15,14.06-10.7a117.91,117.91,0,0,1,16-10,11.81,11.81,0,0,0,3.58-3.06,19.35,19.35,0,0,1,6.28-5.42c1.42-.73,2.81-1.49,4.2-2.28,5.31-3.05,10.6-6.13,15.94-9.14a4.72,4.72,0,0,1,2.28-.61c1.82,0,3.63.28,5.44.41.86.07,1.72.1,2.58.11s1.92-.08,2.88,0c5,.27,10,.62,15,.82,3.59.14,7.19.13,10.79.1q21-.2,41.91-.48c4.94-.07,9.88-.32,14.82-.53,3-.12,6-.31,9.07-.51a3.89,3.89,0,0,0,1.09-.4c2.85-.17,5.69-.31,8.54-.52,4.51-.33,9-.67,13.51-1.09,1.8-.17,3.57-.57,5.35-.86a15.41,15.41,0,0,0,2.82-.32c2.64-.82,5.16-1,7.54.72a3.87,3.87,0,0,0,3.2.53c5.31-1.11,10.64-2.12,15.94-3.3,3-.67,5.94-1.8,9-2.35,5.82-1,11.7-1.7,17.51-2.73,8.56-1.51,17.1-3.21,25.64-4.83.24-.05.47-.12.7-.16,2.81-.47,3.18-.3,4.5,2.29.58,1.14,1,2.33,1.55,3.5,2.12,4.91,4.21,9.82,6.35,14.71,1,2.34,2.15,4.62,3.16,7a15.45,15.45,0,0,1,.88,3,4.77,4.77,0,0,1-2.58,5.6c-.69.39-1.45.67-2.15,1.05-1.58.88-2.08,2-1.64,3.55a3.34,3.34,0,0,0,3.42,2.44,5.61,5.61,0,0,0,1.39-.32c2.77-.91,5,0,6.94,2a21.34,21.34,0,0,1,4.42,6.49c1.32,3.14,2.75,6.24,4.2,9.33.7,1.51,1.6,2.94,2.33,4.44,2,4.23,4.05,8.48,6.07,12.72-.59.22-1.18.43-1.77.67-4.5,1.82-9,3.76-13.51,5.43s-8.94,2.9-13.37,4.47c-4.19,1.49-8.33,3.13-12.47,4.76-6.53,2.55-13,5.15-19.56,7.72-8.22,3.23-16.46,6.43-24.69,9.67s-16.73,6.65-25.09,10c-4.52,1.79-9.06,3.53-13.57,5.37-5.3,2.15-10.59,4.38-15.88,6.58Z" transform="translate(-6777.67 -6777.67)"/><path class="cls-5" d="M7186.2,7049.68c.18.58.39,1.16.53,1.75.63,2.66,2.89,3.48,5.06,1.85,3-2.24,5.95-4.55,9-6.69a95.09,95.09,0,0,1,12.61-7.28c1.72-.84,3.33-1.89,5.08-2.65,2.77-1.21,3.08-.91,4.82,1.54,2.13,3,2.61,6.47,3.57,9.8,1.82,6.27,3.41,12.61,5.09,18.92.2.77.34,1.56.52,2.33.58,2.57-1.12,4.87-3.7,4.42-6.39-1.11-12.22.84-17.82,3.31a153,153,0,0,1-21.48,7.19c-4.47,1.22-8.58,2.94-11.75,6.46-.54.6-1.08,1.22-2,1-.37-1.19-.7-2.39-1.12-3.55-2.43-6.86-3.12-14.13-4.93-21.13-.67-2.59-.35-4.92,1.83-6.7s4.65-3.85,7.1-5.6S7183.66,7051.32,7186.2,7049.68Zm10.66,16.16h-.16c0-1,0-1.91,0-2.87a4.84,4.84,0,0,0-.31-1.14c-.6-2.14-2.24-2.19-4.52-1.85a2.65,2.65,0,0,0-2.07,3.27,43.71,43.71,0,0,0,1.69,5.94,2.29,2.29,0,0,0,2.76,1.75,2.58,2.58,0,0,0,2.42-2.25A24.35,24.35,0,0,0,7196.86,7065.84Zm-17.3-.77a4.74,4.74,0,0,0-.57.38c-1.77,2.5-1.94,9-.3,11.63.83,1.32,1.77,1.53,3.7.76C7182.55,7073.39,7182.18,7069.06,7179.56,7065.07Z" transform="translate(-6777.67 -6777.67)"/><path class="cls-5" d="M7252,6980.44a15.85,15.85,0,0,0,2.25,1.14c3.55,1.18,7.15,2.22,10.68,3.44,2.76,1,4,3,4.08,6-.15,0-.34.1-.45,0-2.57-1.55-5.12-3.14-7.7-4.69a21.6,21.6,0,0,0-7.65-3.28,3.41,3.41,0,0,0-3.49,1c-1.51,1.76-1.37,3.37.62,4.58a11.12,11.12,0,0,0,2.87,1.12,10.73,10.73,0,0,1,5.87,17.42,17.27,17.27,0,0,1-5.38,4.66c-3.8,2.08-7.62,4-12,4.6a12.84,12.84,0,0,1-7-1,4,4,0,0,1-2.59-4.19,19.51,19.51,0,0,1,2.8-9.23,36.91,36.91,0,0,1,8-8.76c2.41-1.94,2.32-3.17.47-5.14a2.81,2.81,0,0,0-3.12-.58,4.91,4.91,0,0,0-1.65.93c-5,4.16-9.48,8.77-11.57,15.19a11.6,11.6,0,0,1-1.11,2l-2.48-1.67a6.72,6.72,0,0,1,.26-1.82c2.31-5.08,5-10,8.95-13.93C7237.93,6983.07,7244.22,6979.8,7252,6980.44Z" transform="translate(-6777.67 -6777.67)"/><path class="cls-5" d="M7156.9,7216.74c-6.34,2.59-12.76,5-19,7.82q-13.17,6-26.09,12.46c-8,4-15.84,8.22-23.65,12.54-5.64,3.12-11.16,6.47-16.65,9.86-5.27,3.27-10.42,6.72-15.64,10.09a11.76,11.76,0,0,1-1.06.55c0-2,0-4,0-6a2.54,2.54,0,0,1,1.31-2.37c1.61-1,3.13-2.19,4.75-3.19,6.39-3.91,12.78-7.81,19.21-11.64,3.22-1.92,6.52-3.7,9.78-5.53,4-2.26,8-4.52,12.09-6.74,1.12-.62,2.3-1.11,3.45-1.67,4.72-2.31,9.43-4.63,14.16-6.92,4.37-2.12,8.69-4.36,13.15-6.27,7-3,14.17-5.81,21.26-8.68a16.52,16.52,0,0,1,1.69-.47C7156.08,7212.74,7156.49,7214.74,7156.9,7216.74Z" transform="translate(-6777.67 -6777.67)"/><path class="cls-5" d="M6998.49,7277.82c-6.78,2.35-13.54,4.73-20.33,7.05-3.47,1.19-7,2.21-10.47,3.4-6.41,2.18-12.79,4.45-19.19,6.65-2.11.72-4.28,1.3-6.39,2-2.7.93-5.48,1.67-7.93,3.26a17,17,0,0,1-2.91,1.17c-1-2.25-1.88-4.34-2.72-6.46a1.31,1.31,0,0,1,.63-1.82c.72-.35,1.45-.69,2.18-1,5.73-2.42,11.47-4.82,17.19-7.25,3.53-1.49,7-3,10.54-4.55,7.75-3.38,15.51-6.74,23.25-10.14,3-1.31,5.94-2.68,8.9-4Z" transform="translate(-6777.67 -6777.67)"/><path class="cls-5" d="M7132.47,7122.92a13.89,13.89,0,0,1,1.78,2.24c.84,1.69,0,3.77-2.22,4.63-3.44,1.37-7,2.45-10.52,3.65-.61.2-1.23.38-1.84.56a10,10,0,0,0-1.2-.2c-3.57-.18-4.91-2.55-5.43-5a130.34,130.34,0,0,1-2.37-14.41c-.53-5.31-.55-10.67-.74-16-.09-2.6,1.38-4.24,3.58-5.54,2.36-1.39,4.56-3.06,6.87-4.54,1.2-.78,2.27-1.85,4.13-2,.15,1.37.39,2.68.42,4a157.56,157.56,0,0,0,2.06,23.85c.45,2.52,1,5,1.49,7.52a6.38,6.38,0,0,0,.48,1.2Z" transform="translate(-6777.67 -6777.67)"/><path class="cls-5" d="M7279.79,7057c-2.21.64-4.45,1.19-6.62,2-2.7.94-5.32,2.1-8,3.11-5.52,2.09-11.06,4.12-16.56,6.24-2,.77-3.91,1.77-5.89,2.6a18.7,18.7,0,0,1-2.35.65c-.78-2.5-1.56-4.75-2.19-7-1.13-4.16-2.12-8.35-3.28-12.5-1-3.75-2.14-7.49-3.41-11.16a36.73,36.73,0,0,0-2.84-6c-.9-1.6-1.19-3,0-4.56a11.9,11.9,0,0,0,1.69-3.14,2.38,2.38,0,0,1,2.33-1.71,18,18,0,0,1,3.82,0c5.46,1,10.57-.16,15.65-2.11,4.77-1.82,8.82-4.8,13-7.59,1.27-.85,2.23-1.09,3.35,0a4.9,4.9,0,0,0-.56,4.14,1.94,1.94,0,0,1-1.26,2.69c-2.37.89-4.78,1.69-7.2,2.44-3.74,1.15-7.51,2.17-11.23,3.36-3,1-6,2.16-9,3.22-3.56,1.25-4.66,3-4.13,6.74a57.32,57.32,0,0,0,3.72,12.83c1,2.44,1.91,4.9,3,7.3s1.84,2.84,4.3,2.38a53.1,53.1,0,0,0,6.81-2c3.78-1.25,7.54-2.57,11.31-3.87,3.23-1.13,6.43-2.37,9.7-3.39,3.52-1.09,3.56-1,4.9,2.46C7279.23,7055,7279.49,7056,7279.79,7057Z" transform="translate(-6777.67 -6777.67)"/><path class="cls-5" d="M6981.46,7167.39l-5.53,3.75c-3.37,2.27-6.75,4.53-10.1,6.83-7.16,4.92-14.29,9.88-21.46,14.79-5.79,4-11.61,7.87-17.41,11.81-2,1.34-3.91,2.75-5.9,4.08s-3.87,1.12-4.94-.67-.5-3.71,1.51-5.07c4.22-2.86,8.38-5.81,12.58-8.69s8.46-5.72,12.66-8.61c3-2.08,6-4.24,9-6.32,3.67-2.53,7.4-5,11.08-7.53q7.08-4.87,14.13-9.79C6980.16,7162.39,6981.42,7163.94,6981.46,7167.39Z" transform="translate(-6777.67 -6777.67)"/><path class="cls-5" d="M7135.17,7093.59c-.45-1.22-.9-2.45-1.34-3.67-.06-.37-.11-.74-.17-1.12-.14-1.6-.29-3.21-.44-4.81.17-1.43.33-2.85.5-4.28a27.41,27.41,0,0,1,3.76-2.56c3.74-1.72,7.56-3.29,11.37-4.86a5.14,5.14,0,0,0,3-3c.27-.66.44-1.35.66-2,1.37-.13,2.74-.32,4.12-.35a1.89,1.89,0,0,1,2,1.68,45.16,45.16,0,0,1,1.31,13.94c0,.75-.17,1.44-1.07,1.66a5.19,5.19,0,0,0-.61-.71c-2.29-1.86-2.23-1.78-4.66,0C7147.91,7087.66,7142,7091.45,7135.17,7093.59Z" transform="translate(-6777.67 -6777.67)"/><path class="cls-5" d="M7301,7079a9.18,9.18,0,0,0,1.49-.57,39.52,39.52,0,0,1,4.86-3c5.37-2.26,10.82-4.32,16.22-6.47,6-2.38,12-4.81,18-7.17,10.83-4.25,21.69-8.44,32.51-12.73,5.78-2.29,11.48-4.76,17.25-7.05a39.21,39.21,0,0,1,4.82-1.26,45.48,45.48,0,0,0,.28,8.32,43.77,43.77,0,0,1-1.31,18.27,3,3,0,0,1-1.9,2.19q-9.86,4.07-19.64,8.26c-5.27,2.26-10.49,4.63-15.77,6.85-6.76,2.84-13.56,5.58-20.34,8.37l-22.1,9.1c-.44.18-.88.39-1.33.54-1.78.55-2.4.24-3.13-1.5-1.63-3.9-3.18-7.84-4.92-11.69-1.38-3-3-6-4.48-9A10.22,10.22,0,0,1,7301,7079Z" transform="translate(-6777.67 -6777.67)"/><path class="cls-5" d="M7253.83,7098.4c3.25-1.53,6.49-3.08,9.75-4.57s6.53-3,9.84-4.4c6.09-2.56,12.23-5,18.32-7.58a11.57,11.57,0,0,0,2.08-1.47,12.47,12.47,0,0,1,1.4,1.89q3.89,8.35,7.69,16.76c1,2.23,1.94,4.5,2.94,6.85a15,15,0,0,1-1.66.93q-8.46,3.31-16.93,6.6c-3.64,1.41-7.3,2.78-10.9,4.29a2.83,2.83,0,0,1-3.29-.47c-6.52-5.63-13.11-11.2-18.75-17.77A4.3,4.3,0,0,1,7253.83,7098.4Z" transform="translate(-6777.67 -6777.67)"/><path class="cls-7" d="M7455.26,6991.21c4,.08,7.38-1.68,10.86-3.27,1.66-.76,3.43-1.29,5.16-1.91,6.52-2.35,13.08-4.62,19.57-7.06,3.27-1.24,6.42-2.77,9.62-4.21,2-.89,2.47-1.95,1.77-4a17.34,17.34,0,0,0-1.63-3.46,84.39,84.39,0,0,0-10-14.2,3.29,3.29,0,0,1,1.73-5.57,2,2,0,0,1,1.55.31,18.47,18.47,0,0,1,3.53,3.17c2.28,3.06,4.37,6.27,6.5,9.43.89,1.32,1.7,2.69,2.53,4.05a2.07,2.07,0,0,0,2.2,1.12,12.41,12.41,0,0,0,3.71-.72c5.61-2.84,11.72-4.07,17.67-5.84,2.58-.76,5.08-1.78,7.65-2.6a15.76,15.76,0,0,1,3.93-.84,5.14,5.14,0,0,1,4.6,2,6.1,6.1,0,0,1-1.19,1.05c-4.41,2.08-8.79,4.21-13.25,6.14a61.25,61.25,0,0,1-12,3.82c-3.17.64-6.19,1.83-7.15,5.52a2.43,2.43,0,0,1-.67,1,11.36,11.36,0,0,0-2.66,5.29c-.57,2.15-.91,4.34-2.2,6.27a5.19,5.19,0,0,0-.65,2.52,4.43,4.43,0,0,0,4.37,4.71,15.89,15.89,0,0,0,5.39-.77,130.18,130.18,0,0,0,16-7.43c1.32-.73,2.68-1.4,4-2.17,4.17-2.5,8.32-5,12.5-7.53,1.93-1.15,2.64-.85,3.16,1.27.57,2.33,1.17,2.77,3.43,1.92a34.57,34.57,0,0,0,4.2-2.23,5.19,5.19,0,0,0,3.06-4.75,4.05,4.05,0,0,1,2.69-3.86,66.07,66.07,0,0,0,7.35-4c3.48-2.1,7-4.13,11-5.11.92-.22,1.87-.3,2.81-.44a2.43,2.43,0,0,1-.21.91,50.58,50.58,0,0,1-4.52,6.35,43.56,43.56,0,0,1-5.91,4.77c-4.08,3-8.24,5.95-12.29,9-1.32,1-2.62,2.23-1.8,4.25-3.41,2.54-6.82,5.07-10.22,7.62a3.41,3.41,0,0,0-.54.77,2.89,2.89,0,0,0-.91.21c-4.12,2.86-8.2,5.78-12.35,8.59s-8.58,5.77-13,8.5c-8.6,5.34-17.25,10.59-25.91,15.83-4,2.43-8.08,4.75-12.23,7.17-.91-.84-1.74-1.57-2.53-2.35-5.39-5.34-9.87-11.45-14.64-17.32-2.3-2.85-4.49-5.8-6.86-8.59A38.77,38.77,0,0,1,7455.26,6991.21Z" transform="translate(-6777.67 -6777.67)"/><path class="cls-7" d="M7591.61,6940.18a2.89,2.89,0,0,1-3.33-1.68c-1.37-2.51-2.75-5-4.35-7.4s-2.39-4.64-.88-7.29a8.46,8.46,0,0,1,5.56,5.38c1.05,3.14,2.12,6.26,3.12,9.42A4.29,4.29,0,0,1,7591.61,6940.18Z" transform="translate(-6777.67 -6777.67)"/><path class="cls-7" d="M7282.15,7004.07c.05.94.09,1.87.13,2.81-3.63,2-7.27,4-10.89,6-1.31.73-2.57,1.57-3.85,2.36-1.12-1.11-2.08-.87-3.35,0-4.16,2.79-8.21,5.77-13,7.6-5.09,1.94-10.2,3.07-15.66,2.11a17.4,17.4,0,0,0-3.82-.06,2.38,2.38,0,0,0-2.33,1.71,11.47,11.47,0,0,1-1.69,3.14c-1.22,1.58-.93,3,0,4.56a36.73,36.73,0,0,1,2.84,6c1.28,3.67,2.37,7.41,3.42,11.16,1.15,4.15,2.14,8.34,3.27,12.5.63,2.29,1.41,4.54,2.19,7a17.15,17.15,0,0,0,2.35-.65c2-.83,3.89-1.83,5.89-2.6,5.5-2.12,11.05-4.15,16.56-6.24,2.68-1,5.3-2.16,8-3.11,2.17-.77,4.41-1.32,6.62-2,.45.74.89,1.48,1.35,2.21a10.3,10.3,0,0,0,1.42,2.19c3.35,3.1,5.16,7.25,7.55,11,1.63,2.55,3,5.27,4.44,7.93a2.69,2.69,0,0,1,.15.92,12,12,0,0,1-2.08,1.46c-6.09,2.56-12.23,5-18.32,7.59-3.31,1.39-6.58,2.89-9.84,4.39s-6.5,3-9.75,4.58a13.71,13.71,0,0,1-1.39-.82c-2.56-1.93-5.09-2.48-8.18-.88a75,75,0,0,1-13.63,5c-7.11,2.07-14.22,4.15-21.23,6.55-9.19,3.13-18.29,6.54-27.4,9.9s-17.87,6.74-26.84,10c-9.4,3.47-18.85,6.82-28.27,10.25-1,.37-2,.94-3.05,1.31-2.81,1-4,.16-4.59-3a19.51,19.51,0,0,1-.13-2.87c.6-.18,1.21-.36,1.8-.56,3.44-1.2,6.92-2.28,10.29-3.65,2.14-.87,3-2.94,2.16-4.63a13,13,0,0,0-1.73-2.24c.1-.12.18-.29.31-.36,5.87-3.19,11.63-6.62,17.66-9.48a98.45,98.45,0,0,0,15.3-9.63,20.48,20.48,0,0,1,2.78-1.87c3.37-1.72,5.25-4.8,7.14-7.84a6.57,6.57,0,0,0,.49-2c.95.25,1.49-.37,2-1,3.16-3.53,7.28-5.25,11.75-6.47a153.43,153.43,0,0,0,21.48-7.19c5.6-2.47,11.42-4.42,17.82-3.31,2.58.45,4.28-1.85,3.69-4.42-.17-.77-.31-1.56-.52-2.33-1.67-6.31-3.26-12.65-5.08-18.92-1-3.33-1.45-6.84-3.57-9.8-1.75-2.45-2.05-2.75-4.83-1.54-1.74.76-3.36,1.81-5.07,2.65a95.85,95.85,0,0,0-12.62,7.28c-3.07,2.14-6,4.45-9,6.69-2.18,1.63-4.43.81-5.06-1.85-.14-.59-.36-1.17-.54-1.75a146.51,146.51,0,0,1,13.83-10.19,100.83,100.83,0,0,1,16.68-8.76,3,3,0,0,1,.89-.35c3.16-.17,4.14-2.56,5.05-5a38.74,38.74,0,0,0,1.35-4.33,4.61,4.61,0,0,0-1.39-4.59,4.21,4.21,0,0,1-1.35-3.65c.18-2.22.26-4.46.58-6.66a16.07,16.07,0,0,1,1.15-3.09l2.48,1.67a11.6,11.6,0,0,0,1.11-2c2.09-6.42,6.53-11,11.57-15.19a4.86,4.86,0,0,1,1.66-.93,2.82,2.82,0,0,1,3.11.58c1.85,2,1.94,3.2-.47,5.15a37.06,37.06,0,0,0-8,8.75,19.39,19.39,0,0,0-2.79,9.24,4,4,0,0,0,2.58,4.18,12.84,12.84,0,0,0,7,1c4.37-.6,8.19-2.52,12-4.59a17.45,17.45,0,0,0,5.39-4.67,10.73,10.73,0,0,0-5.88-17.42,11.12,11.12,0,0,1-2.87-1.12c-2-1.2-2.13-2.82-.62-4.58a3.43,3.43,0,0,1,3.5-1,21.47,21.47,0,0,1,7.64,3.29c2.58,1.54,5.13,3.13,7.7,4.69.11.06.3,0,.45,0,0-3-1.32-5.06-4.08-6-3.53-1.23-7.13-2.27-10.68-3.44a17,17,0,0,1-2.25-1.15,38.93,38.93,0,0,1,5.91-.08,19.57,19.57,0,0,0,11.15-1.44,18.11,18.11,0,0,1,3.89-1.11,2.09,2.09,0,0,1,2.39.66c3,4.37,5.68,8.88,5.46,14.47a15.34,15.34,0,0,1-1.88,6.85,3,3,0,0,0,.4,3.94C7279.38,7004.27,7280.62,7004.9,7282.15,7004.07Z" transform="translate(-6777.67 -6777.67)"/><path class="cls-7" d="M7300.31,7052.65c1.68-.72,3.35-1.45,5-2.15,5.29-2.2,10.57-4.43,15.88-6.59,4.5-1.83,9-3.57,13.56-5.36,8.37-3.32,16.72-6.67,25.1-10,8.22-3.24,16.46-6.44,24.69-9.68,6.52-2.56,13-5.16,19.55-7.72,4.15-1.62,8.28-3.27,12.47-4.75,4.43-1.57,9-2.85,13.38-4.47s9-3.62,13.5-5.44l1.78-.67c.93,1.83,1.88,3.65,2.78,5.5,1.23,2.5,2.49,5,3.6,7.55.78,1.81.69,1.94-1,2.79-3.77,1.91-7.53,3.81-11.33,5.64-5.45,2.62-10.9,5.23-16.39,7.75a23.41,23.41,0,0,1-5,1.59,36.7,36.7,0,0,0-9.5,3.73c-1.91,1-3.68,2.25-5.6,3.22a10.41,10.41,0,0,0-5.91,7.06,38.63,38.63,0,0,0-4.81,1.27c-5.78,2.29-11.48,4.76-17.26,7.05-10.82,4.28-21.68,8.47-32.51,12.73-6,2.36-12,4.78-18,7.17-5.41,2.15-10.86,4.2-16.22,6.46a40.9,40.9,0,0,0-4.87,3,8.54,8.54,0,0,1-1.48.57l-10.16-18c.88-.36,1.61-.6,2.3-.94,1.55-.78,3.05-1.67,4.62-2.4a3,3,0,0,0,1.84-3.5C7300.38,7053.6,7300.35,7053.13,7300.31,7052.65Z" transform="translate(-6777.67 -6777.67)"/><path class="cls-7" d="M7114.29,7244.93a10.24,10.24,0,0,1-1.83-.47,9.54,9.54,0,0,0-8.31.14c-3.61,1.66-7.19,3.37-10.79,5-1.59.74-3.21,1.4-4.77,2.2-4.33,2.21-8.7,4.33-12.92,6.74-5.79,3.3-11.45,6.82-17.15,10.27-1.28.78-2.48,1.7-3.72,2.56V7269c.35-.19.73-.34,1.06-.56,5.21-3.36,10.37-6.81,15.64-10.08,5.48-3.39,11-6.74,16.64-9.86,7.81-4.32,15.68-8.54,23.65-12.54q12.93-6.49,26.09-12.46c6.23-2.83,12.65-5.23,19-7.82.66,2.85,1.51,5.68,1.93,8.58s.41,5.86.6,8.8a3.06,3.06,0,0,1-1,2.57,26.85,26.85,0,0,1-11.33,6.4c-2.83.83-4.63-.17-6.2-2.76a11.9,11.9,0,0,0-1.42-1.9,3.37,3.37,0,0,0-3.62-1c-5.67,1.35-11,3.7-16.35,5.86A55.35,55.35,0,0,0,7114.29,7244.93Z" transform="translate(-6777.67 -6777.67)"/><path class="cls-7" d="M7153.19,7067c-.22.68-.4,1.37-.67,2a5.23,5.23,0,0,1-3,3c-3.87,1.57-7.75,3.13-11.55,4.85a26.06,26.06,0,0,0-3.82,2.57,3.17,3.17,0,0,0-.43,0c.14-1.5.26-3,.44-4.5a3.38,3.38,0,0,1,2.46-3.24c1.25-.4,2.42-1.05,3.68-1.47,3.51-1.15,6.95-2.57,10.66-3.1C7151.69,7067,7152.44,7067,7153.19,7067Z" transform="translate(-6777.67 -6777.67)"/><path class="cls-7" d="M7135.22,7093.59c6.85-2.14,12.76-5.93,18.43-10.09,2.43-1.78,2.37-1.86,4.66,0a6.06,6.06,0,0,1,.62.71c-.89.68-1.74,1.39-2.65,2a92,92,0,0,1-17.17,9.2C7136.66,7096.48,7136.33,7096.24,7135.22,7093.59Z" transform="translate(-6777.67 -6777.67)"/><path class="cls-7" d="M7248.79,7043.4a14.61,14.61,0,0,1,.21-1.68,3.58,3.58,0,0,1,3.25-2.72,3.73,3.73,0,0,1,3.28,2.65c.89,3,1.79,5.93,2.67,8.91a3.21,3.21,0,0,1-5.64,2.81,9.57,9.57,0,0,1-1-1.9c-.85-2.06-1.68-4.13-2.44-6.22A8.85,8.85,0,0,1,7248.79,7043.4Z" transform="translate(-6777.67 -6777.67)"/><path class="cls-7" d="M7120.73,7357.43c-.18-1.64,1-2.66,2.27-3.48,1-.63,2.15-1.06,3.2-1.62,1.95-1.05,4.08-1.7,5.8-3.22a3.06,3.06,0,0,1,4.28.47,13.46,13.46,0,0,1,1.71,3.9,3.09,3.09,0,0,1-1.86,3.73c-.49.26-1,.49-1.51.73l-6.6,3.23c-.21.11-.41.24-.61.37-1.5,1-3.11,1.43-4.71.41S7120.74,7359.33,7120.73,7357.43Z" transform="translate(-6777.67 -6777.67)"/><path class="cls-7" d="M7196.86,7065.84a24.35,24.35,0,0,1-.21,2.85,2.58,2.58,0,0,1-2.42,2.25,2.29,2.29,0,0,1-2.76-1.75,43.71,43.71,0,0,1-1.69-5.94,2.65,2.65,0,0,1,2.07-3.27c2.28-.34,3.92-.29,4.52,1.85a4.84,4.84,0,0,1,.31,1.14c0,1,0,1.91,0,2.87Z" transform="translate(-6777.67 -6777.67)"/></g></svg>